<?xml version="1.0" standalone="no"?>
<!DOCTYPE svg PUBLIC "-//W3C//DTD SVG 20010904//EN"
 "http://www.w3.org/TR/2001/REC-SVG-20010904/DTD/svg10.dtd">
<svg version="1.0" xmlns="http://www.w3.org/2000/svg"
 width="16.000000pt" height="16.000000pt" viewBox="0 0 16.000000 16.000000"
 preserveAspectRatio="xMidYMid meet">
<metadata>
Created by potrace 1.11, written by Peter Selinger 2001-2013
</metadata>
<g transform="translate(0.000000,16.000000) scale(0.001784,-0.001784)"
fill="#000000" stroke="none">
<path d="M1540 6587 l0 -2383 37 -18 c35 -17 38 -17 50 0 8 12 13 50 13 111 0
115 23 183 87 256 60 68 86 79 138 61 46 -15 68 -40 59 -66 -6 -19 3 -23 25
-9 18 11 43 -15 77 -79 14 -27 32 -50 38 -50 15 0 41 -90 63 -220 19 -106 10
-153 -28 -165 -10 -4 -19 -12 -19 -18 0 -7 -9 -23 -20 -37 -11 -14 -20 -34
-20 -45 0 -11 -13 -58 -30 -105 -16 -47 -29 -100 -30 -118 0 -76 58 -132 161
-157 29 -6 59 -29 60 -45 2 -23 2 -23 -4 -57 -4 -22 -2 -37 9 -48 12 -11 14
-26 8 -60 -6 -40 -8 -44 -19 -28 -11 15 -13 10 -13 -35 -1 -30 3 -50 9 -47 5
4 9 13 9 21 0 8 5 14 11 14 6 0 10 -10 9 -22 -5 -52 0 -68 16 -61 14 5 16 2 9
-23 -9 -36 -11 -85 -5 -144 4 -40 3 -45 -14 -42 -11 2 -17 -1 -14 -10 3 -7 11
-13 19 -13 8 0 14 -6 13 -12 -3 -36 -4 -38 -15 -23 -9 12 -10 11 -6 -7 3 -12
-1 -27 -8 -33 -17 -14 -37 5 -93 86 -22 33 -52 70 -67 84 -15 14 -45 57 -67
95 -23 39 -58 99 -79 134 -46 76 -64 137 -85 273 -8 57 -21 128 -29 158 -14
60 -71 166 -91 174 -7 3 -27 -12 -44 -34 -17 -22 -49 -46 -75 -57 l-45 -18 0
-1512 c0 -1448 1 -1514 18 -1531 10 -10 23 -17 29 -15 6 2 13 -6 16 -18 3 -11
10 -18 16 -14 6 3 11 1 11 -5 0 -6 5 -8 12 -4 8 5 9 -3 5 -29 -3 -20 -1 -39 4
-42 5 -4 9 1 9 10 0 14 6 16 28 10 15 -3 32 -11 37 -17 7 -8 5 -9 -7 -5 -10 4
-18 2 -18 -3 0 -6 7 -10 15 -10 8 0 15 -7 15 -16 0 -12 7 -15 26 -11 32 6 59
-31 57 -77 -2 -30 -1 -30 9 -8 6 13 17 21 23 18 7 -2 18 1 24 7 8 8 11 8 11 0
0 -6 -6 -14 -12 -16 -10 -4 -10 -8 1 -15 7 -5 10 -15 7 -21 -5 -7 1 -11 13
-11 12 0 21 -4 21 -9 0 -5 11 -12 25 -15 14 -4 25 -13 25 -21 0 -9 9 -15 21
-15 15 0 19 -4 13 -12 -16 -22 -10 -53 9 -52 11 1 17 -5 17 -18 0 -10 6 -18
13 -17 20 4 67 -13 62 -21 -3 -5 -1 -11 4 -15 5 -3 14 3 20 12 8 14 10 10 6
-18 -3 -33 -2 -36 21 -36 14 0 34 -10 45 -22 11 -11 31 -24 44 -27 17 -4 24
-12 22 -28 -2 -17 3 -21 28 -21 17 0 34 -6 38 -13 5 -7 12 -10 17 -7 4 3 11
-3 14 -12 4 -9 1 -20 -6 -24 -9 -6 -2 -11 20 -15 18 -4 35 -11 38 -16 3 -5
320 -8 749 -8 726 1 744 2 750 20 7 22 -23 80 -41 80 -6 0 -14 13 -16 29 -2
17 -1 28 3 25 4 -2 9 2 12 8 2 7 8 9 13 5 5 -4 2 -12 -6 -17 -22 -13 -5 -23
19 -11 12 6 30 16 42 22 13 6 19 7 15 1 -3 -6 1 -18 10 -26 9 -9 13 -23 10
-31 -9 -26 8 -16 29 15 21 32 42 35 37 5 -2 -10 1 -14 7 -10 6 3 11 13 11 21
0 8 7 14 16 14 13 0 11 -7 -9 -42 -13 -24 -29 -42 -35 -40 -7 1 -12 -2 -12 -8
0 -19 27 -10 46 14 10 14 22 22 28 19 5 -4 7 1 3 11 -4 9 -3 15 2 12 5 -3 20
3 34 14 30 24 49 26 41 5 -4 -8 -1 -15 5 -15 7 0 14 7 17 15 7 16 44 21 44 5
0 -5 -7 -6 -17 -3 -11 4 -14 3 -9 -5 4 -7 13 -12 21 -12 7 0 15 -4 17 -10 4
-11 52 -14 93 -4 l30 7 -21 -24 c-28 -31 -27 -55 3 -68 26 -12 29 -5 8 23 -17
23 -11 36 16 36 11 0 22 7 25 15 11 29 22 15 18 -22 -4 -30 -3 -34 6 -21 11
18 40 25 40 10 0 -5 7 -17 15 -28 13 -16 13 -14 0 15 -13 25 -14 36 -5 45 8 8
15 6 26 -8 13 -19 14 -19 35 0 20 18 21 18 34 0 13 -17 15 -17 30 -2 18 18 35
21 35 7 0 -5 19 -7 43 -5 37 3 43 1 42 -14 0 -9 -4 -22 -8 -29 -4 -6 -4 -18
-1 -27 6 -14 75 -16 705 -16 671 0 699 1 699 18 0 27 9 32 36 20 30 -14 39 -6
22 21 -18 30 2 49 36 33 29 -13 39 -6 25 20 -14 27 -2 40 32 33 28 -6 29 -5
23 19 -9 36 2 47 32 36 24 -10 25 -9 18 27 -7 36 -7 36 23 30 35 -7 48 0 32
19 -19 23 -3 45 26 38 19 -5 25 -2 25 9 0 9 -5 19 -10 22 -19 12 10 35 35 29
21 -5 23 -2 22 28 -2 30 0 33 26 30 28 -4 35 6 16 25 -17 17 -1 33 33 33 26 0
29 2 18 15 -18 21 -5 45 24 45 21 0 24 4 23 28 -2 23 2 27 23 27 20 0 24 5 25
30 0 27 3 30 27 27 26 -3 27 -1 22 28 -6 28 -5 30 23 30 27 0 29 2 25 30 -4
27 -1 30 21 30 22 0 25 4 24 28 -2 23 2 28 25 30 24 3 27 6 18 23 -14 25 -5
39 26 39 20 0 23 3 16 18 -13 23 -4 42 19 42 16 0 18 5 13 24 -5 20 0 27 22
39 17 9 23 17 15 21 -18 11 -13 34 9 41 16 5 19 12 14 31 -5 20 -2 26 14 31
17 4 20 11 16 33 -4 19 -1 29 10 33 9 4 16 18 16 32 0 14 7 28 15 31 9 4 15
19 15 35 0 18 6 32 16 36 8 3 13 12 10 20 -3 7 3 22 14 33 11 11 20 27 20 35
0 8 9 19 20 25 11 6 20 21 20 34 0 13 7 26 15 30 17 6 22 -29 5 -39 -5 -3 -10
-19 -10 -35 0 -16 -4 -32 -10 -35 -5 -3 -10 -14 -10 -24 0 -10 -7 -24 -15 -31
-8 -7 -15 -23 -15 -35 0 -12 -7 -28 -15 -35 -8 -7 -15 -23 -15 -35 0 -12 -7
-28 -15 -35 -8 -7 -15 -23 -15 -35 0 -12 -7 -28 -15 -35 -8 -7 -12 -16 -10
-21 3 -4 -3 -17 -14 -28 -11 -11 -17 -22 -13 -25 3 -4 -3 -19 -15 -34 -11 -15
-23 -39 -27 -54 -3 -16 -11 -28 -16 -28 -6 0 -10 -9 -10 -20 0 -11 -9 -25 -20
-32 -11 -7 -20 -23 -20 -36 0 -15 -7 -26 -20 -29 -11 -3 -20 -14 -20 -24 0
-10 -8 -26 -19 -36 -10 -10 -22 -28 -25 -40 -4 -13 -13 -23 -21 -23 -7 0 -18
-14 -24 -31 -6 -17 -20 -33 -31 -36 -11 -3 -20 -13 -20 -21 0 -9 -10 -27 -22
-40 -13 -13 -33 -33 -45 -46 -13 -13 -23 -28 -23 -35 0 -6 -11 -21 -25 -33
-14 -12 -25 -29 -25 -39 0 -9 -9 -19 -20 -22 -12 -3 -20 -14 -20 -25 0 -12 -8
-27 -18 -34 -9 -7 -23 -25 -29 -41 -7 -15 -19 -27 -28 -27 -8 0 -15 -7 -15
-16 0 -17 -23 -44 -39 -44 -5 0 -11 -10 -13 -23 -2 -12 -13 -26 -25 -32 -13
-5 -23 -18 -23 -28 0 -11 -8 -21 -19 -24 -10 -2 -24 -14 -30 -26 -6 -12 -20
-35 -30 -52 -11 -17 -20 -33 -20 -37 -1 -5 98 -8 218 -8 l220 0 26 37 c84 120
160 242 270 433 91 157 324 633 365 745 12 33 28 75 36 93 8 18 14 43 14 55 0
19 -3 18 -20 -11 -11 -18 -20 -37 -20 -42 0 -6 -12 -29 -26 -51 -21 -33 -28
-38 -40 -28 -9 7 -11 16 -6 23 5 6 32 68 61 138 l51 128 0 330 0 330 -29 0
c-16 0 -48 -7 -71 -15 -65 -23 -105 -20 -129 11 -12 15 -21 25 -22 23 -9 -34
-8 -197 2 -316 13 -169 11 -177 -43 -189 -26 -5 -34 -2 -49 17 -16 21 -19 45
-19 169 -1 111 -5 160 -20 210 -10 36 -19 59 -19 53 -1 -17 -52 -17 -74 0 -25
17 -47 96 -35 123 11 23 40 44 70 49 11 3 26 9 34 16 21 17 34 78 27 122 -5
31 -2 41 14 52 11 8 23 31 26 50 5 32 2 41 -27 69 -18 18 -43 55 -55 81 -21
44 -147 194 -163 195 -4 0 -26 -31 -48 -70 -22 -38 -46 -70 -52 -70 -18 0 -3
205 20 275 28 84 52 258 51 368 0 101 -8 182 -34 360 -17 110 -17 120 -1 161
9 24 19 66 23 95 4 33 10 51 19 51 24 0 63 41 70 74 4 17 25 55 48 83 47 61
75 67 141 30 61 -34 100 -119 99 -212 -3 -127 -48 -308 -110 -438 -24 -52 -44
-99 -44 -105 0 -6 -16 -52 -35 -102 -19 -50 -35 -102 -35 -115 0 -13 -16 -77
-36 -141 -37 -122 -37 -156 0 -170 18 -7 164 50 368 144 37 17 83 38 103 46
l35 15 0 2542 0 2541 -35 -6 c-42 -8 -104 9 -237 65 -86 36 -100 46 -121 82
-48 82 -47 169 1 227 25 29 38 35 102 46 40 7 87 11 104 8 17 -2 66 -6 109 -8
l77 -6 0 150 0 150 -1152 -1 c-634 0 -1142 -4 -1128 -9 14 -4 66 -20 115 -35
50 -14 97 -30 105 -34 9 -5 31 -12 50 -16 28 -6 31 -9 16 -14 -14 -6 -10 -10
23 -21 22 -7 48 -21 57 -32 16 -17 16 -18 -7 -19 -23 -1 -23 -1 4 -11 28 -10
44 -45 33 -73 -4 -11 1 -15 19 -15 13 0 27 -4 30 -10 11 -18 23 -11 18 10 -5
17 0 20 26 20 24 0 32 5 37 25 8 32 17 31 84 -5 30 -16 69 -29 85 -30 22 0 26
-3 16 -9 -11 -7 -7 -14 20 -30 45 -28 57 -27 23 2 -23 20 -25 26 -16 44 25 46
148 93 167 64 3 -5 34 -19 69 -31 36 -12 69 -26 74 -33 5 -7 15 -36 23 -65 10
-43 11 -59 0 -88 -11 -30 -10 -38 2 -52 28 -33 27 -39 -1 -34 -15 3 -30 10
-34 16 -5 8 -10 8 -19 -1 -8 -8 -7 -14 8 -21 10 -6 39 -30 65 -54 26 -23 62
-52 80 -62 l33 -19 -21 24 c-12 13 -26 34 -33 46 -10 19 -8 21 12 16 68 -14
107 -27 107 -35 0 -5 4 -7 8 -4 4 3 25 -11 46 -30 20 -19 41 -34 47 -34 5 0 9
-6 9 -14 0 -8 6 -16 14 -19 18 -7 48 -95 35 -103 -5 -3 -7 -10 -4 -15 4 -5 1
-9 -5 -9 -7 0 -10 -7 -6 -15 9 -26 -4 -17 -55 38 -46 47 -53 35 -9 -16 10 -12
43 -51 73 -87 95 -113 246 -388 283 -517 9 -32 21 -64 26 -70 6 -7 7 -13 4
-13 -4 0 2 -13 13 -29 12 -16 20 -40 19 -53 -1 -12 12 -54 29 -93 17 -38 34
-83 38 -100 12 -49 27 -158 26 -189 0 -16 3 -34 8 -40 4 -6 11 -45 14 -86 8
-92 27 -182 41 -192 7 -5 7 -8 -1 -8 -7 0 -13 -9 -13 -21 0 -13 4 -18 11 -13
8 5 10 -2 6 -22 -3 -15 -1 -39 5 -53 5 -15 11 -55 13 -91 3 -36 5 -67 6 -70 1
-3 0 -18 -1 -35 -1 -19 2 -26 8 -20 14 15 22 171 9 184 -8 8 -8 11 0 11 6 0
19 -7 27 -16 23 -22 20 -9 -13 60 -26 55 -52 171 -31 136 6 -9 10 0 12 30 l3
45 38 -57 c20 -31 52 -67 70 -80 67 -47 90 -104 82 -202 -5 -65 -48 -186 -66
-186 -4 0 -10 10 -12 23 -12 62 -6 -37 8 -128 9 -55 18 -140 21 -190 3 -49 12
-128 20 -174 8 -46 14 -107 14 -136 0 -33 5 -55 13 -58 9 -4 9 -8 -2 -15 -12
-9 -10 -19 11 -69 47 -108 61 -151 54 -178 -5 -20 -12 -26 -29 -23 -14 2 -21
9 -19 20 4 24 -41 131 -89 210 -52 86 -135 152 -212 167 -106 21 -505 35
-1017 35 -289 0 -577 -3 -640 -7 -63 -4 -196 -10 -295 -12 -99 -3 -256 -10
-349 -16 -93 -6 -233 -12 -311 -13 -80 0 -141 -5 -138 -10 3 -5 -19 -7 -50 -4
-31 2 -54 1 -52 -2 3 -4 -22 -6 -55 -6 -33 1 -60 -2 -60 -8 0 -5 -45 -7 -114
-3 -79 4 -117 2 -125 -6 -9 -9 -14 -9 -20 2 -6 9 -16 11 -32 6 -29 -10 -98 -9
-122 0 -13 6 -16 3 -11 -8 5 -13 1 -15 -23 -8 -15 4 -37 5 -48 0 -11 -4 -36
-7 -55 -7 l-35 1 35 7 35 7 -32 2 c-24 1 -35 -5 -44 -20 -6 -12 -14 -17 -18
-12 -3 6 -24 13 -46 16 -30 5 -35 4 -20 -3 17 -9 16 -10 -8 -6 -43 5 -294 -15
-312 -26 -11 -6 -125 -23 -138 -19 -5 1 -5 -4 -1 -10 5 -8 2 -10 -7 -7 -28 11
-261 -17 -396 -47 -13 -3 -33 -7 -45 -10 -29 -6 -228 -25 -333 -31 -195 -11
-247 -24 -293 -75 -33 -35 -79 -139 -74 -166 2 -7 -2 -13 -9 -13 -6 0 -9 -8
-6 -20 3 -11 1 -18 -3 -15 -5 3 -10 -4 -12 -15 -6 -41 -23 -24 -23 23 0 27 1
44 3 38 4 -12 32 -16 32 -5 0 4 -7 12 -16 19 -13 9 -16 30 -15 111 1 54 3 119
6 144 13 132 28 241 34 244 3 2 7 -22 8 -54 3 -70 22 -118 63 -158 18 -18 30
-41 30 -56 0 -14 5 -26 10 -26 6 0 10 7 10 16 0 8 4 12 10 9 5 -3 18 -1 28 4
13 7 22 7 29 0 7 -7 12 -5 16 6 6 13 0 15 -46 10 -46 -6 -50 -5 -35 8 12 10
14 17 7 24 -16 16 34 47 61 38 l22 -7 -23 -24 c-24 -25 -8 -35 17 -10 7 8 23
12 34 9 12 -3 20 -2 19 3 -3 20 2 34 12 34 6 0 9 -7 6 -15 -5 -12 9 -13 96 -9
93 5 124 15 111 35 -2 4 6 9 17 12 16 4 20 10 14 24 -14 35 -15 113 -1 113 8
0 13 13 14 30 0 17 -4 30 -9 30 -6 0 -8 -4 -4 -9 3 -5 1 -12 -4 -15 -5 -3 -11
3 -14 14 -3 12 1 24 11 29 14 8 14 13 4 33 -6 12 -14 39 -17 58 -3 19 -8 42
-11 52 -3 9 0 19 6 23 6 4 7 13 1 23 -11 23 -12 82 0 82 5 0 9 5 9 11 0 7 -10
9 -25 7 -25 -5 -29 3 -28 50 1 6 -4 12 -9 12 -5 0 -7 -13 -3 -30 4 -20 1 -37
-9 -52 l-16 -22 0 24 c0 41 -11 70 -23 63 -7 -4 10 19 38 50 27 31 52 57 56
57 4 0 9 9 12 21 4 13 10 18 18 13 7 -4 10 -3 5 4 -3 6 8 35 25 64 39 66 99
202 127 288 45 139 56 210 57 365 0 142 -1 153 -26 200 -53 105 -142 122 -246
48 -17 -13 -36 -23 -42 -23 -6 0 -11 -7 -11 -15 0 -8 -4 -15 -8 -15 -5 0 -18
-17 -30 -37 -27 -48 -71 -101 -72 -87 0 5 9 28 19 50 11 22 22 73 25 119 l7
80 -19 -47 c-11 -25 -22 -62 -26 -81 -4 -19 -13 -40 -21 -47 -8 -7 -12 -16
-10 -21 14 -22 11 -96 -6 -142 -11 -29 -19 -53 -19 -54 0 -2 -5 -3 -11 -3 -11
0 -9 31 7 90 6 25 6 171 0 178 -5 4 -23 -140 -31 -236 -3 -48 -2 -71 5 -67 5
3 10 -1 10 -10 0 -9 -4 -13 -10 -10 -9 6 -15 -19 -12 -55 1 -8 -5 -47 -13 -85
-9 -43 -17 -166 -20 -308 -5 -227 -5 -240 19 -339 14 -57 27 -112 29 -123 3
-11 5 7 6 40 1 33 6 78 10 100 l9 40 2 -45 c2 -36 4 -39 7 -15 14 99 29 -34
27 -235 -2 -108 -15 -167 -35 -154 -11 6 -5 133 7 177 3 11 0 17 -9 17 -9 0
-18 6 -21 13 -3 6 -3 -7 0 -31 7 -48 -4 -182 -15 -182 -4 0 -4 28 -1 63 4 34
6 71 5 82 -2 11 -4 34 -5 50 -2 17 -6 -8 -10 -55 -4 -47 -13 -105 -19 -129
-18 -64 -36 -38 -35 50 0 42 -3 66 -9 60 -5 -5 -9 -33 -8 -63 1 -29 1 -68 2
-85 0 -18 5 -31 11 -30 6 1 13 -4 15 -12 4 -9 0 -11 -16 -6 -12 4 -21 2 -21
-4 0 -6 -10 -11 -23 -11 -31 0 -44 28 -53 110 -3 36 -11 76 -17 90 -16 40 -9
330 9 358 12 18 18 21 29 12 11 -9 15 -5 21 24 3 20 3 56 -1 81 -7 47 1 89 14
80 5 -2 11 33 14 78 10 122 6 153 -8 62 -11 -75 -12 -68 -9 114 3 107 8 199
13 205 4 6 11 36 14 66 4 30 11 98 17 150 5 52 19 130 30 172 11 43 20 91 20
107 0 17 9 45 20 63 11 18 20 39 20 46 0 23 39 101 61 121 12 11 36 52 53 93
110 249 256 444 478 640 93 81 280 220 358 265 74 43 117 59 70 26 -27 -19
-51 -46 -45 -52 7 -6 85 60 82 70 -1 5 9 16 23 23 93 50 112 58 122 48 12 -12
58 24 58 45 0 10 7 12 20 8 14 -4 20 -2 20 9 0 9 13 22 30 31 35 18 46 19 33
3 -6 -7 -10 -20 -10 -28 0 -8 -3 -32 -7 -52 l-7 -38 40 0 c22 0 75 11 119 25
191 60 487 116 737 139 105 9 727 10 733 0 4 -5 12 -9 17 -10 18 0 89 -16 145
-31 54 -14 181 -43 189 -43 3 0 -5 9 -17 20 -25 24 -28 32 -8 24 8 -3 19 3 26
15 10 20 -2 31 -14 12 -7 -10 -163 22 -178 37 -35 35 44 38 161 7 28 -7 51
-10 51 -5 0 4 -17 12 -37 17 -27 6 -38 14 -38 28 0 10 -6 20 -14 23 -8 3 -11
0 -7 -6 10 -17 -29 -33 -56 -23 -28 11 -171 36 -298 52 -52 6 -99 16 -104 20
-14 13 -94 11 -101 -2 -4 -5 -19 -8 -34 -4 -26 5 -26 5 -23 -36 3 -28 0 -44
-9 -50 -8 -5 -114 -9 -237 -9 l-223 0 3 22 c4 31 39 38 218 45 106 4 161 10
175 19 31 22 -100 24 -300 5 -83 -8 -102 -7 -111 5 -10 12 -198 14 -1293 14
l-1281 0 0 -2383z m3327 2343 c123 -17 183 -37 183 -61 0 -11 -7 -22 -16 -26
-23 -9 -364 34 -380 48 -10 8 -11 16 -3 30 8 16 21 19 74 19 35 0 99 -5 142
-10z m-1100 -29 c-4 -15 3 -17 48 -13 29 2 55 0 58 -5 15 -25 -26 -45 -168
-82 -221 -57 -215 -56 -222 -33 -3 14 -11 18 -25 14 -14 -3 -19 -1 -14 6 4 6
23 14 42 18 24 4 34 11 30 20 -8 20 19 42 67 55 23 6 71 19 107 29 70 19 84
17 77 -9z m83 19 c0 -5 -5 -10 -11 -10 -5 0 -7 5 -4 10 3 6 8 10 11 10 2 0 4
-4 4 -10z m250 -9 c0 -10 -6 -24 -14 -30 -15 -13 -176 -45 -184 -37 -11 12 12
24 58 30 42 6 52 11 60 31 8 20 17 25 45 25 28 0 35 -4 35 -19z m1495 -141 c4
-6 -7 -10 -24 -10 -17 0 -31 5 -31 10 0 6 11 10 24 10 14 0 28 -4 31 -10z
m1177 -938 c30 -67 15 -60 -22 10 -23 44 -28 58 -15 48 10 -8 27 -34 37 -58z
m-4835 -1534 c-3 -8 -6 -5 -6 6 -1 11 2 17 5 13 3 -3 4 -12 1 -19z m19 -98
c-1 -32 -5 -63 -9 -67 -4 -4 -7 23 -5 60 1 37 5 67 9 67 4 0 7 -27 5 -60z
m155 -67 l-5 -38 -6 30 c-7 31 -4 45 9 45 4 0 5 -17 2 -37z m72 -77 c12 4 17
1 17 -10 0 -11 -7 -16 -17 -14 -12 2 -18 -3 -17 -14 1 -10 -3 -18 -10 -18 -6
0 -10 13 -10 30 2 43 3 47 12 32 5 -7 16 -10 25 -6z m-40 -88 c6 -4 11 -48 11
-115 1 -118 11 -143 56 -143 12 0 18 -4 15 -11 -4 -6 -13 -8 -21 -5 -19 7 -64
-14 -64 -31 0 -16 -22 -17 -36 -3 -8 8 -15 6 -24 -6 -12 -14 -12 -16 6 -12 12
1 22 -1 23 -7 5 -20 -17 -15 -47 10 -16 14 -38 25 -48 25 -16 0 -17 2 -4 10 8
5 23 7 33 4 10 -3 29 2 42 10 22 15 25 15 25 1 0 -21 13 -19 28 6 11 18 11 24
-4 40 -11 12 -14 27 -10 44 4 14 0 40 -8 60 -8 19 -11 37 -6 40 5 3 6 34 4 70
-5 68 8 119 14 55 2 -19 9 -38 15 -42z m67 -17 c0 -6 -4 -13 -10 -16 -5 -3
-10 1 -10 9 0 9 5 16 10 16 6 0 10 -4 10 -9z m9 -206 c6 -3 11 -11 11 -16 0
-13 -21 -7 -22 6 -1 6 -8 15 -16 21 -9 7 -12 16 -7 24 6 10 10 8 16 -7 4 -12
12 -24 18 -28z m-14 -75 c-3 -5 -10 -10 -16 -10 -5 0 -9 5 -9 10 0 6 7 10 16
10 8 0 12 -4 9 -10z m3535 -4 c0 -11 -19 -15 -25 -6 -3 5 1 10 9 10 9 0 16 -2
16 -4z m256 -10 c16 -13 21 -12 36 1 18 16 38 10 38 -11 0 -7 12 -13 30 -13
17 0 30 3 30 7 0 11 175 1 178 -10 4 -12 32 -13 32 -1 0 14 48 0 66 -20 9 -10
25 -19 34 -19 9 0 26 -18 39 -40 12 -22 26 -40 32 -40 5 0 9 -5 9 -12 0 -16
50 -79 58 -74 4 2 8 -9 8 -26 1 -17 6 -33 13 -37 6 -4 17 -50 24 -102 11 -80
15 -91 25 -74 10 18 11 16 12 -15 0 -20 13 -76 28 -125 31 -100 40 -220 22
-315 -5 -30 -14 -91 -20 -135 -13 -96 -20 -129 -25 -123 -2 2 -8 41 -14 86
-18 138 -33 212 -43 212 -17 0 1 -323 28 -530 22 -162 28 -438 15 -620 -17
-235 -22 -282 -30 -320 -4 -19 -7 -56 -6 -82 2 -27 -1 -48 -5 -48 -4 0 -11
-28 -15 -62 -4 -35 -9 -72 -11 -83 -2 -11 -6 -37 -8 -59 -3 -21 -11 -46 -19
-55 -8 -9 -12 -22 -9 -30 2 -7 -2 -17 -9 -22 -10 -6 -8 -9 9 -9 12 0 22 -4 22
-9 0 -5 -8 -8 -17 -7 -14 1 -18 -7 -17 -36 1 -21 -2 -38 -5 -38 -11 0 -11 -39
0 -45 5 -4 9 -23 9 -43 -1 -30 -3 -34 -11 -19 -5 9 -14 17 -18 17 -14 0 -21
-43 -10 -56 5 -7 9 -16 8 -20 -1 -5 1 -17 5 -26 4 -10 6 -23 3 -30 -3 -7 -6
-3 -6 8 -1 15 -9 23 -25 26 -18 4 -23 1 -18 -10 3 -10 1 -13 -6 -8 -7 4 -12 1
-12 -8 0 -21 -18 -30 -35 -16 -19 16 -19 -1 0 -26 8 -10 15 -30 15 -43 0 -20
-2 -21 -15 -11 -13 11 -14 8 -9 -21 4 -19 11 -38 17 -44 6 -7 8 -3 4 12 -3 13
-1 26 4 29 5 3 9 -14 9 -36 0 -32 -3 -41 -14 -37 -7 3 -19 0 -25 -6 -8 -8 -11
-7 -11 4 0 17 -37 55 -45 47 -3 -2 -1 -26 4 -51 4 -26 6 -49 2 -52 -3 -4 -18
9 -33 27 -19 22 -26 26 -22 13 4 -11 11 -25 17 -32 11 -15 16 -73 6 -73 -4 0
-10 8 -13 18 -3 9 -15 23 -26 30 -17 10 -20 10 -20 -5 0 -15 -2 -16 -10 -3 -8
12 -10 9 -8 -10 2 -14 8 -28 13 -32 14 -10 15 -48 1 -45 -6 1 -14 9 -17 17 -6
12 -8 11 -15 -5 -4 -11 -15 -28 -25 -38 -15 -17 -17 -17 -30 0 -13 17 -13 17
5 3 17 -13 19 -13 14 0 -2 8 -14 16 -26 18 -12 2 -22 8 -22 13 0 6 5 7 12 3 7
-4 2 7 -11 24 -12 18 -23 32 -24 32 -1 0 -2 -13 -2 -29 -1 -16 2 -28 5 -26 3
2 6 -11 6 -30 0 -29 -2 -32 -18 -24 -9 5 -22 17 -27 27 -6 9 -11 13 -11 9 0
-5 9 -20 20 -34 28 -36 16 -42 -15 -9 -20 21 -26 24 -31 12 -3 -8 -1 -24 6
-35 6 -12 8 -21 4 -21 -3 0 1 -11 10 -25 16 -25 16 -25 -3 -13 -11 6 -18 15
-16 19 3 3 -4 14 -15 24 -18 16 -30 8 -13 -8 3 -4 7 -19 8 -32 l1 -26 -18 23
c-10 13 -18 27 -18 33 0 5 -5 4 -12 -3 -6 -6 -11 -26 -10 -44 1 -24 -2 -28 -9
-18 -7 11 -8 8 -3 -11 6 -30 -13 -50 -22 -22 -3 10 -10 26 -15 35 -5 10 -6 25
-2 35 6 16 4 16 -9 5 -14 -11 -16 -10 -12 10 4 21 4 21 -6 -2 -6 -14 -8 -40
-5 -59 6 -30 4 -33 -8 -23 -10 9 -13 27 -11 60 3 33 1 43 -6 32 -5 -8 -10 -32
-10 -52 0 -21 -4 -38 -10 -38 -5 0 -6 7 -3 17 4 10 2 14 -5 10 -6 -4 -13 1
-15 10 -3 12 -5 8 -6 -9 -1 -35 -20 -46 -38 -22 -13 18 -14 17 -11 -11 2 -16
10 -40 17 -53 7 -13 11 -31 9 -40 -8 -36 -36 33 -43 103 -4 39 -15 90 -26 114
-10 24 -19 51 -19 61 0 9 -11 27 -25 40 -27 25 -35 51 -10 30 8 -7 15 -9 15
-4 0 11 23 -28 51 -89 12 -26 24 -46 26 -43 3 2 -2 17 -10 33 -19 36 -47 146
-47 183 0 15 -6 33 -14 39 -8 7 -12 20 -9 30 3 11 -1 29 -7 41 -11 20 -10 22
5 17 9 -4 20 -7 25 -7 4 0 11 -12 14 -26 4 -15 9 -24 12 -22 12 12 -17 56 -41
62 -14 4 -24 10 -21 14 2 4 -5 9 -17 9 -20 2 -21 1 -5 -11 10 -7 15 -16 11
-19 -3 -4 0 -13 7 -22 7 -8 10 -25 7 -37 -4 -13 -2 -40 2 -60 8 -34 7 -37 -9
-28 -16 9 -19 4 -22 -38 -3 -26 2 -64 9 -86 15 -45 16 -56 4 -56 -5 0 -12 19
-16 43 l-8 42 -8 -30 c-6 -24 -7 -19 -6 22 1 29 5 53 10 53 12 0 8 95 -5 108
-7 7 -9 12 -5 12 3 0 2 12 -4 28 -6 15 -12 35 -15 46 -4 24 -24 47 -34 41 -4
-3 -10 2 -14 10 -3 8 -10 15 -16 15 -6 0 -8 -5 -4 -11 4 -7 -7 -1 -25 12 -17
12 -31 26 -31 31 0 4 -6 8 -12 8 -7 0 -22 13 -33 30 -13 20 -22 25 -27 17 -5
-8 -10 -4 -14 11 -5 18 -9 20 -15 10 -6 -8 -9 -9 -9 -1 0 6 -13 10 -29 9 -17
-1 -28 2 -25 6 3 4 0 8 -6 8 -6 0 -10 -8 -8 -17 3 -13 12 -17 33 -16 22 2 26
0 15 -7 -12 -8 -13 -13 -2 -30 6 -11 12 -22 12 -25 0 -11 -28 -4 -40 10 -7 8
-16 12 -21 9 -5 -3 -6 2 -3 10 4 11 0 16 -10 16 -9 0 -16 5 -16 12 0 6 -3 8
-7 5 -3 -4 -17 3 -30 15 -27 25 -28 24 -8 -32 20 -57 11 -63 -12 -9 -15 33
-17 49 -9 66 l11 22 22 -21 c35 -33 27 -14 -11 26 -18 20 -39 36 -46 36 -7 0
-25 13 -40 28 -14 16 -31 27 -37 25 -6 -2 -23 7 -38 22 -31 28 -35 30 -35 15
0 -5 17 -26 38 -47 20 -20 28 -31 18 -23 -18 14 -19 14 -7 -8 7 -12 15 -21 19
-18 4 2 8 -16 9 -40 2 -34 -1 -44 -14 -44 -11 0 -14 -8 -11 -34 2 -19 1 -33
-3 -30 -4 2 -9 -2 -12 -8 -2 -7 -4 23 -5 67 0 102 -4 127 -21 133 -8 3 -11 0
-7 -7 4 -6 3 -11 -2 -11 -14 0 -23 28 -12 35 5 3 6 13 3 21 -5 13 -7 13 -15 2
-7 -10 -11 -9 -21 5 -7 10 -18 26 -25 35 -12 15 -12 15 -7 -5 3 -12 1 -24 -5
-28 -9 -6 -14 10 -13 43 1 13 0 13 -33 17 -33 3 -28 -40 6 -65 16 -12 29 -32
32 -49 2 -17 1 -28 -2 -26 -4 2 -2 -11 4 -30 6 -19 15 -35 19 -35 5 0 5 10 1
23 -4 12 -7 30 -6 40 0 10 -3 30 -8 43 -10 24 3 35 14 12 3 -7 3 -3 0 10 -10
42 5 22 26 -35 12 -32 23 -62 25 -68 4 -18 16 -50 26 -67 5 -10 7 -18 4 -18
-8 0 -52 74 -53 90 0 8 -5 29 -10 45 -6 21 -8 -3 -4 -80 4 -106 -1 -138 -11
-65 -2 19 -14 52 -26 73 -11 20 -20 41 -20 45 3 18 -2 26 -9 15 -5 -9 -12 -6
-21 10 -13 20 -13 21 2 8 23 -18 21 -9 -7 47 -26 51 -63 93 -50 56 4 -10 16
-32 27 -47 10 -15 16 -34 13 -42 -3 -8 1 -35 8 -60 8 -25 10 -47 6 -50 -4 -3
-11 12 -15 33 l-8 37 -9 -35 c-5 -19 -16 -42 -24 -50 -12 -12 -12 -9 1 17 22
44 21 110 -4 163 -11 25 -21 39 -21 31 0 -11 -3 -11 -17 0 -15 12 -16 12 -10
-6 l7 -20 -16 20 c-16 19 -16 19 -10 -7 9 -38 -1 -35 -19 5 l-15 32 3 -31 c2
-17 -3 -36 -10 -43 -7 -6 -13 -10 -14 -9 0 2 -2 12 -3 23 -1 11 -8 29 -15 40
-10 18 -11 16 -6 -12 4 -18 2 -34 -4 -38 -7 -4 -11 3 -11 17 0 55 -23 89 -33
51 -4 -14 -5 -14 -6 3 -1 23 -28 35 -62 29 -10 -2 -20 0 -20 6 -1 5 -3 14 -4
19 -1 6 -3 13 -4 16 0 4 -7 1 -14 -5 -8 -6 -17 -8 -20 -4 -4 3 -7 1 -7 -5 0
-7 -4 -12 -10 -12 -5 0 -10 12 -10 28 0 16 -3 22 -8 15 -13 -21 -35 2 -27 28
4 16 3 20 -3 10 -7 -10 -14 -11 -31 -2 -20 11 -21 10 -16 -11 6 -25 -9 -57
-21 -45 -4 3 -2 13 5 20 6 8 8 22 5 32 -6 16 -8 16 -16 1 -5 -9 -14 -14 -19
-11 -5 4 -7 11 -4 16 3 5 -1 6 -10 3 -11 -5 -18 0 -22 15 -3 11 -9 21 -14 21
-17 0 -9 19 12 31 22 11 44 0 44 -21 0 -6 5 -10 10 -11 6 -1 18 -5 28 -10 12
-7 17 -6 17 4 0 22 22 38 36 26 7 -6 34 -9 60 -7 44 3 46 4 29 18 -15 12 -17
12 -10 1 5 -9 4 -12 -3 -7 -6 4 -8 14 -5 23 4 11 3 14 -5 9 -7 -4 -12 -1 -12
9 0 16 -138 112 -176 121 -12 3 -33 4 -45 2 -22 -3 -24 -8 -24 -60 0 -45 -4
-60 -20 -72 -19 -15 -19 -17 -2 -30 9 -7 17 -17 17 -21 0 -5 -8 -1 -17 7 -10
9 -28 19 -40 22 -33 10 -81 64 -99 113 -12 29 -23 43 -35 43 -21 0 -22 -1 -13
-24 3 -9 12 -16 20 -16 7 0 17 -12 20 -27 4 -16 18 -38 32 -50 20 -19 23 -25
12 -38 -8 -10 -9 -15 -1 -15 6 0 11 6 11 13 0 6 12 -2 28 -19 15 -18 42 -39
60 -49 21 -10 32 -22 28 -30 -3 -8 3 -19 12 -25 15 -10 14 -10 -4 -5 -14 3
-35 -5 -63 -26 -24 -17 -45 -28 -48 -26 -6 7 47 58 55 53 4 -2 13 2 20 10 15
17 8 18 -20 3 -11 -6 -31 -12 -43 -14 -18 -1 -22 2 -18 14 4 9 -7 3 -25 -13
-17 -16 -29 -32 -27 -36 3 -4 -4 -15 -14 -24 -11 -10 -25 -31 -31 -47 -7 -16
-17 -29 -22 -29 -5 0 -4 10 2 23 11 21 10 21 -4 3 -9 -11 -16 -23 -16 -28 0
-4 -3 -7 -7 -6 -5 1 -21 -6 -36 -16 -35 -24 -50 -11 -17 14 41 32 20 26 -95
-27 -5 -2 -1 4 10 14 11 10 26 26 33 35 12 15 10 16 -15 9 -15 -4 -28 -13 -28
-20 0 -8 -11 -20 -25 -29 l-25 -14 25 21 c30 24 20 28 -15 5 -14 -9 -22 -21
-18 -27 3 -6 1 -7 -5 -3 -6 4 -22 0 -35 -8 -21 -14 -23 -14 -23 2 -1 9 -4 25
-9 35 -5 12 -3 17 10 17 9 0 13 5 10 10 -10 15 -22 12 -45 -12 -11 -12 -20
-16 -20 -9 0 7 -5 9 -11 5 -8 -5 -8 -8 0 -14 13 -7 4 -40 -10 -40 -5 0 -9 -5
-9 -10 0 -20 -53 -90 -69 -91 -10 0 -12 -2 -3 -6 6 -2 12 -9 12 -15 0 -6 -7
-7 -16 -4 -8 3 -12 2 -9 -4 3 -6 -1 -13 -9 -16 -9 -3 -13 -11 -9 -17 4 -6 0
-8 -8 -5 -10 4 -15 -1 -16 -13 -1 -12 3 -17 9 -13 8 5 9 1 4 -12 -5 -10 -9
-24 -9 -31 0 -7 -4 -10 -9 -7 -8 5 -22 -25 -35 -74 -6 -24 -5 -26 10 -14 9 8
20 11 24 9 14 -9 46 21 40 36 -3 8 0 23 8 34 7 10 15 30 17 43 1 14 7 23 12
20 5 -3 13 6 18 19 4 13 11 21 14 18 4 -3 -7 -28 -24 -56 -17 -27 -28 -52 -25
-55 4 -3 1 -6 -6 -6 -9 0 -9 -5 -1 -20 7 -14 8 -26 1 -38 -8 -13 -11 -14 -11
-2 0 11 -6 8 -20 -9 -15 -17 -20 -19 -20 -7 0 13 -4 14 -25 4 -13 -6 -23 -14
-22 -17 1 -3 -3 -19 -10 -36 -6 -16 -14 -43 -17 -58 -4 -15 -11 -25 -16 -22
-4 3 -11 -3 -14 -12 -3 -10 -3 -1 0 20 3 22 1 37 -6 37 -5 0 -10 5 -10 11 0 6
7 9 15 5 8 -3 15 -1 15 4 0 6 -5 10 -12 10 -6 0 -3 6 8 14 14 11 21 11 27 3 5
-7 7 -2 5 13 -1 14 1 31 6 38 13 22 -4 29 -20 8 -11 -16 -11 -21 -1 -28 8 -5
7 -8 -5 -8 -10 0 -23 -9 -30 -19 -6 -10 -18 -17 -25 -14 -7 3 -13 0 -13 -7 0
-6 5 -8 10 -5 17 11 10 -18 -16 -65 -14 -25 -23 -38 -21 -30 19 67 19 67 2 37
-9 -15 -13 -36 -10 -47 3 -10 0 -22 -6 -26 -7 -4 -9 -3 -6 3 4 6 0 16 -7 22
-11 9 -16 9 -22 0 -4 -8 -3 -9 4 -5 14 8 15 -3 3 -22 -6 -10 -10 -8 -15 10 -5
14 -9 18 -13 10 -2 -6 -9 -9 -14 -6 -6 3 -20 -2 -32 -13 l-22 -18 19 23 c25
29 15 37 -23 17 -17 -8 -31 -11 -31 -6 0 6 9 15 19 21 11 5 21 20 23 32 2 16
9 22 21 20 9 -2 17 1 17 6 0 11 -60 10 -77 -1 -9 -6 -11 -3 -6 9 5 14 3 15
-15 5 -32 -17 -37 -13 -16 11 10 12 14 18 7 15 -6 -4 -15 -3 -18 3 -4 6 6 16
22 22 29 11 29 12 12 29 -23 23 -53 28 -54 9 0 -16 -57 -31 -76 -20 -8 5 -10
19 -5 41 6 33 6 34 -9 11 -20 -28 -39 -19 -24 11 6 13 -2 7 -20 -13 -17 -19
-31 -30 -31 -25 0 6 4 15 9 20 12 14 23 65 13 65 -4 0 -20 -26 -35 -57 -18
-39 -26 -49 -23 -31 2 16 -1 28 -5 28 -5 0 -9 -6 -10 -12 0 -7 -5 -2 -10 11
-5 14 -8 30 -5 38 8 19 -10 25 -24 8 -19 -23 -29 -8 -17 25 6 17 14 30 17 30
4 0 5 38 1 59 -1 2 -9 -3 -20 -13 -17 -16 -18 -15 -15 26 2 24 1 37 -2 31 -8
-19 -24 -15 -17 4 5 12 3 14 -7 8 -10 -6 -12 -4 -7 8 3 10 2 17 -3 17 -5 0
-12 11 -16 25 -4 16 -13 25 -26 25 -15 0 -18 4 -13 18 21 51 24 73 9 79 -7 3
-14 9 -14 15 0 5 6 6 13 3 6 -4 3 2 -8 12 -14 13 -19 28 -17 51 2 21 -3 41
-13 52 -10 11 -15 25 -12 32 2 7 -2 21 -10 30 -12 13 -12 21 -2 39 8 16 9 24
1 27 -6 2 -8 10 -5 18 3 8 -1 14 -10 14 -17 0 -24 29 -37 145 -5 44 -12 91
-16 105 -3 14 -8 75 -10 135 -3 61 -9 124 -14 140 -12 36 -10 584 2 591 4 3 3
14 -2 25 -7 13 -8 36 -2 69 5 28 5 50 1 50 -5 0 -9 9 -9 20 0 11 6 20 13 20 8
0 7 4 -3 10 -10 7 -12 12 -4 18 17 11 25 46 31 130 8 146 25 247 50 312 3 8 7
40 8 70 2 30 8 68 14 83 6 16 11 39 11 52 0 12 7 35 14 51 8 15 13 31 10 36
-3 5 -3 17 1 26 4 9 9 40 10 67 7 105 21 169 36 159 6 -3 13 3 16 15 8 30 47
37 73 13 21 -20 60 -19 60 0 0 6 7 7 16 4 10 -4 22 1 30 11 12 16 15 16 24 3
8 -12 10 -11 10 7 0 17 -4 21 -17 16 -10 -4 -14 -2 -10 4 10 16 59 13 53 -3
-11 -28 17 -25 43 4 36 42 96 48 130 12 15 -15 22 -19 18 -9 -7 20 10 39 35
39 11 0 15 -5 12 -15 -5 -13 -3 -13 22 0 27 14 29 13 44 -10 16 -27 36 -33 43
-12 3 9 9 9 27 -1 16 -10 25 -11 33 -3 13 13 57 15 57 3 0 -4 -4 -13 -10 -20
-7 -9 -7 -9 2 -2 7 5 20 10 29 10 10 0 21 9 24 20 8 24 14 25 42 5 29 -20 189
-26 185 -7 -1 8 2 11 8 7 6 -3 24 1 42 9 38 20 34 20 42 -6 l6 -23 19 22 c11
14 33 24 52 25 19 2 37 8 42 13 4 6 10 0 13 -13 5 -18 11 -21 28 -16 30 10 58
7 68 -8 6 -10 10 -10 18 2 9 13 11 13 20 0 7 -12 13 -13 27 -4 12 7 27 8 42 2
13 -4 33 -6 44 -2 11 3 23 1 27 -6 5 -9 9 -9 14 -1 4 6 2 11 -3 11 -6 0 -11 4
-11 8 0 5 20 9 45 9 38 0 43 -2 32 -15 -10 -13 -9 -14 10 -4 12 7 31 12 42 12
10 0 21 4 23 9 5 14 68 0 68 -15 0 -20 17 -17 29 4 9 15 11 14 12 -8 1 -17 3
-20 6 -7 3 12 11 15 29 11 18 -5 24 -2 24 10 0 10 -9 16 -22 16 -19 0 -20 2
-8 10 20 13 53 13 45 0 -3 -5 -1 -10 4 -10 6 0 11 5 11 10 0 6 7 10 15 10 8 0
15 -5 15 -11 0 -5 8 -9 18 -8 30 3 68 -2 55 -8 -20 -8 -15 -23 8 -23 11 0 17
-4 14 -10 -3 -5 1 -10 9 -10 20 0 20 5 0 24 -14 15 -14 16 5 16 12 0 21 4 21
10 0 5 -7 7 -15 4 -8 -4 -15 -1 -15 5 0 6 -19 11 -45 11 -25 0 -45 4 -45 9 0
5 26 8 58 6 49 -3 52 -3 17 4 -37 8 -38 8 -10 11 17 1 56 1 88 0 46 -1 57 1
57 14 0 9 5 16 10 16 6 0 10 -4 10 -10 0 -5 7 -10 16 -10 8 0 13 4 9 9 -3 5
-1 12 5 16 5 3 10 1 10 -4 0 -6 5 -11 11 -11 12 0 45 -31 42 -39 -2 -3 3 -6
10 -6 6 0 11 8 9 18 -2 9 2 17 8 17 5 0 10 -7 10 -15 0 -20 19 -19 26 0 4 10
13 13 25 10 11 -4 19 -2 19 3 0 5 13 7 30 4 16 -2 27 -9 24 -14 -4 -6 2 -8 14
-4 14 5 28 0 41 -13 24 -24 33 -27 25 -7 -7 19 24 28 60 16 19 -6 51 -7 82 -2
32 6 57 5 68 -2 14 -8 20 -8 23 2 7 18 23 15 23 -5 1 -17 1 -17 14 0 14 18 32
24 21 7 -3 -5 1 -10 10 -10 9 0 13 5 10 10 -3 6 4 11 17 12 13 1 30 2 38 4 8
1 21 2 28 3 7 1 10 5 7 11 -4 7 3 7 19 0 14 -5 26 -6 26 -1 0 5 24 8 53 6 28
-1 44 0 34 2 -22 6 -12 23 14 23 11 0 17 5 14 10 -11 17 10 11 33 -10 22 -21
37 -27 27 -11 -9 15 14 24 29 12 9 -8 22 -8 40 -1 14 5 26 7 26 4 0 -3 10 2
22 10 28 20 39 20 64 2z m-3966 -38 c0 -13 -23 -5 -28 10 -2 7 2 10 12 6 9 -3
16 -11 16 -16z m-70 2 c0 -5 -7 -10 -16 -10 -8 0 -12 5 -9 10 3 6 10 10 16 10
5 0 9 -4 9 -10z m87 -12 c-3 -8 -6 -5 -6 6 -1 11 2 17 5 13 3 -3 4 -12 1 -19z
m71 -5 c-5 -6 -16 -9 -24 -6 -22 8 -17 18 10 18 18 0 22 -3 14 -12z m2682 13
c0 -3 -4 -8 -10 -11 -5 -3 -10 -1 -10 4 0 6 5 11 10 11 6 0 10 -2 10 -4z m767
-2 c-3 -3 -12 -4 -19 -1 -8 3 -5 6 6 6 11 1 17 -2 13 -5z m-3697 -24 c0 -5 -4
-10 -10 -10 -5 0 -10 5 -10 10 0 6 5 10 10 10 6 0 10 -4 10 -10z m303 3 c-7
-2 -19 -2 -25 0 -7 3 -2 5 12 5 14 0 19 -2 13 -5z m774 1 c-3 -3 -12 -4 -19
-1 -8 3 -5 6 6 6 11 1 17 -2 13 -5z m4373 -40 c0 -8 -4 -12 -10 -9 -5 3 -10
13 -10 21 0 8 5 12 10 9 6 -3 10 -13 10 -21z m-2933 10 c-3 -3 -12 -4 -19 -1
-8 3 -5 6 6 6 11 1 17 -2 13 -5z m-97 -18 c0 -3 -4 -8 -10 -11 -5 -3 -10 -1
-10 4 0 6 5 11 10 11 6 0 10 -2 10 -4z m-2310 -86 c-34 -11 -60 -11 -35 0 11
5 29 8 40 8 16 0 15 -2 -5 -8z m-85 -35 c-32 -26 -45 -31 -45 -16 0 13 41 41
60 41 10 -1 4 -9 -15 -25z m-95 -105 c-6 -11 -13 -20 -16 -20 -2 0 0 9 6 20 6
11 13 20 16 20 2 0 0 -9 -6 -20z m900 -84 c0 -3 -4 -8 -10 -11 -5 -3 -10 -1
-10 4 0 6 5 11 10 11 6 0 10 -2 10 -4z m-975 -184 c-8 -9 -25 20 -18 31 3 5
10 2 15 -7 6 -10 7 -20 3 -24z m483 -1300 c17 -50 35 -170 28 -189 -7 -16 -11
-14 -36 16 -22 26 -28 40 -23 63 5 25 3 27 -13 21 -18 -6 -18 -5 0 16 20 22
20 22 -2 28 -28 7 -30 43 -2 43 11 0 20 7 20 15 0 25 17 17 28 -13z m29 -424
c-3 -8 -6 -5 -6 6 -1 11 2 17 5 13 3 -3 4 -12 1 -19z m2043 -263 c0 -8 -4 -15
-10 -15 -5 0 -7 7 -4 15 4 8 8 15 10 15 2 0 4 -7 4 -15z m187 -22 c-3 -3 -11
-2 -17 2 -9 6 -9 10 1 16 14 8 27 -7 16 -18z m-132 -93 c3 -6 -1 -7 -9 -4 -18
7 -21 14 -7 14 6 0 13 -4 16 -10z m-217 -72 c-7 -13 -11 -26 -10 -30 1 -4 -7
-6 -18 -5 -18 1 -18 3 7 29 32 34 38 35 21 6z m2489 2 c1 -11 -2 -20 -8 -20
-5 0 -9 2 -9 4 0 2 -3 11 -6 20 -4 10 -1 16 8 16 7 0 14 -9 15 -20z m-2402 0
c-3 -5 -12 -10 -18 -10 -7 0 -6 4 3 10 19 12 23 12 15 0z m390 -10 c3 -5 2
-10 -4 -10 -5 0 -13 5 -16 10 -3 6 -2 10 4 10 5 0 13 -4 16 -10z m-488 -62
c-3 -8 -6 -5 -6 6 -1 11 2 17 5 13 3 -3 4 -12 1 -19z m156 -15 c-7 -3 -9 -12
-6 -20 5 -13 2 -15 -11 -10 -12 5 -22 -1 -34 -23 -9 -16 -21 -30 -25 -30 -11
0 1 20 38 62 17 19 34 33 40 30 5 -3 4 -7 -2 -9z m54 -5 c-3 -8 -6 -5 -6 6 -1
11 2 17 5 13 3 -3 4 -12 1 -19z m481 -13 c-3 -3 -9 2 -12 12 -6 14 -5 15 5 6
7 -7 10 -15 7 -18z m-605 0 c-3 -9 -8 -14 -10 -11 -3 3 -2 9 2 15 9 16 15 13
8 -4z m-278 -5 c-4 -6 -2 -16 4 -23 7 -9 4 -16 -11 -26 -11 -7 -17 -8 -13 -2
3 6 1 11 -5 11 -6 0 -4 10 6 25 15 24 33 37 19 15z m524 -20 c-13 -16 -25 -28
-27 -25 -5 5 37 55 45 55 2 0 -6 -13 -18 -30z m336 -68 c4 -60 2 -92 -5 -92
-6 0 -10 37 -10 97 0 53 2 94 5 92 2 -3 7 -46 10 -97z m-1061 73 c3 -8 0 -14
-6 -12 -6 1 -14 -11 -19 -27 -4 -15 -15 -36 -23 -45 -9 -10 -14 -20 -11 -23 3
-3 -1 -8 -9 -11 -10 -4 -14 0 -13 13 1 10 4 17 9 14 9 -6 32 35 24 43 -5 5 31
63 39 63 1 0 5 -7 9 -15z m257 -18 c-10 -9 -11 -8 -5 6 3 10 9 15 12 12 3 -3
0 -11 -7 -18z m1207 -50 c6 3 12 0 12 -7 0 -6 -4 -9 -9 -6 -5 4 -11 3 -13 -1
-1 -5 -21 12 -43 37 l-39 45 39 -36 c22 -20 46 -34 53 -32z m1379 31 c-3 -8
-6 -5 -6 6 -1 11 2 17 5 13 3 -3 4 -12 1 -19z m-2396 -41 c-10 -9 -11 -8 -5 6
3 10 9 15 12 12 3 -3 0 -11 -7 -18z m445 -2 c-17 -13 -33 -22 -38 -19 -4 3 -8
1 -8 -4 0 -5 -12 -18 -27 -27 l-28 -18 29 32 c17 17 35 31 42 31 6 0 17 7 24
15 7 8 18 15 24 15 6 -1 -2 -12 -18 -25z m524 4 c0 -6 -4 -7 -10 -4 -5 3 -10
11 -10 16 0 6 5 7 10 4 6 -3 10 -11 10 -16z m-2908 -27 c12 -45 0 -61 -68 -89
-33 -14 -81 -42 -109 -63 -57 -42 -125 -105 -125 -115 0 -3 -11 -21 -24 -38
-85 -114 -97 -191 -94 -579 l3 -308 26 0 c14 0 34 -9 43 -19 17 -18 18 -18 69
1 106 41 124 44 147 23 29 -27 26 -32 -30 -39 -60 -8 -115 -55 -122 -105 -4
-26 -1 -32 18 -37 13 -3 32 1 46 10 12 9 32 16 43 16 31 -1 -35 -53 -122 -96
-84 -42 -108 -42 -108 1 -1 21 -6 31 -20 34 -36 6 -60 30 -89 86 l-29 56 20
28 c29 39 42 148 27 236 -12 74 -40 196 -54 230 -4 11 -13 33 -19 49 -39 95
-26 269 25 353 16 26 38 66 49 88 20 39 199 225 216 225 5 0 27 11 48 24 43
27 163 65 200 63 19 -2 27 -10 33 -35z m2173 19 c3 -6 -3 -15 -13 -20 -11 -6
-25 -23 -31 -38 -6 -16 -20 -34 -31 -41 -15 -9 -13 -2 10 31 15 23 27 43 25
45 -2 2 -14 -2 -27 -9 -29 -15 -17 -2 19 22 33 21 40 22 48 10z m-95 -11 c0
-5 -4 -10 -10 -10 -5 0 -10 5 -10 10 0 6 5 10 10 10 6 0 10 -4 10 -10z m-293
-22 c-3 -8 -6 -5 -6 6 -1 11 2 17 5 13 3 -3 4 -12 1 -19z m1133 18 c0 -3 -4
-8 -10 -11 -5 -3 -10 -1 -10 4 0 6 5 11 10 11 6 0 10 -2 10 -4z m-1327 -25
c-3 -10 -16 -21 -29 -24 -32 -6 -30 9 4 26 15 8 28 15 29 16 0 1 -1 -8 -4 -18z
m484 -13 c-3 -8 -6 -5 -6 6 -1 11 2 17 5 13 3 -3 4 -12 1 -19z m873 -3 c13
-18 13 -19 0 -8 -8 6 -19 11 -23 11 -5 0 -12 4 -15 8 -4 4 -1 4 6 0 7 -4 12
-2 12 5 0 7 1 10 3 8 1 -2 9 -13 17 -24z m1350 15 c0 -5 -2 -10 -4 -10 -3 0
-8 5 -11 10 -3 6 -1 10 4 10 6 0 11 -4 11 -10z m-2870 -14 c0 -2 -8 -10 -17
-17 -16 -13 -17 -12 -4 4 13 16 21 21 21 13z m825 -31 c-16 -14 -34 -25 -39
-25 -12 0 -3 9 31 31 40 25 43 22 8 -6z m-745 11 c0 -2 -7 -7 -16 -10 -8 -3
-12 -2 -9 4 6 10 25 14 25 6z m331 -39 c-8 -8 -11 -7 -11 4 0 20 13 34 18 19
3 -7 -1 -17 -7 -23z m1315 12 c19 -22 19 -22 -3 -10 -13 6 -23 16 -23 21 0 15
5 12 26 -11z m-1726 -18 c-5 -11 -15 -23 -21 -27 -6 -3 -3 5 6 20 20 30 30 35
15 7z m230 15 c0 -3 -4 -8 -10 -11 -5 -3 -10 -1 -10 4 0 6 5 11 10 11 6 0 10
-2 10 -4z m-192 -31 c-3 -3 -9 2 -12 12 -6 14 -5 15 5 6 7 -7 10 -15 7 -18z
m722 15 c-20 -13 -33 -13 -25 0 3 6 14 10 23 10 15 0 15 -2 2 -10z m387 -12
c-3 -8 -6 -5 -6 6 -1 11 2 17 5 13 3 -3 4 -12 1 -19z m-726 -31 c-12 -30 -41
-37 -41 -9 0 14 2 15 10 2 8 -12 10 -12 14 3 15 44 19 51 22 41 3 -6 0 -23 -5
-37z m216 25 c-10 -10 -14 -22 -10 -27 5 -4 2 -5 -5 -1 -11 6 -10 12 4 27 9
10 19 19 22 19 3 0 -2 -8 -11 -18z m601 -7 c-3 -3 -9 2 -12 12 -6 14 -5 15 5
6 7 -7 10 -15 7 -18z m376 9 c3 -8 2 -12 -4 -9 -6 3 -10 10 -10 16 0 14 7 11
14 -7z m85 -78 c23 -46 41 -92 40 -103 0 -16 -1 -16 -9 2 -8 19 -9 19 -9 -3
-1 -14 -6 -22 -13 -20 -19 7 -20 24 -3 41 14 14 13 21 -12 71 -14 30 -30 53
-33 51 -4 -2 -7 1 -7 8 0 7 -4 21 -9 31 -5 13 -4 17 3 13 6 -4 29 -45 52 -91z
m116 61 c4 5 5 2 1 -4 -11 -19 -24 -16 -37 10 -12 21 -11 21 8 4 11 -9 23 -14
28 -10z m-1663 -12 c-4 -26 -22 -45 -22 -25 0 12 18 50 24 50 2 0 1 -11 -2
-25z m1458 -9 c0 -7 -7 -13 -15 -13 -8 0 -12 4 -9 8 2 4 0 10 -6 14 -20 12
-10 26 10 15 11 -6 20 -17 20 -24z m146 7 c-7 -7 -26 7 -26 19 0 6 6 6 15 -2
9 -7 13 -15 11 -17z m-1733 -23 c-5 -28 -8 -31 -13 -15 -4 11 -3 28 2 38 14
27 19 16 11 -23z m870 25 c-3 -9 -8 -14 -10 -11 -3 3 -2 9 2 15 9 16 15 13 8
-4z m256 -1 c4 3 8 -12 9 -33 2 -28 -1 -38 -13 -38 -11 0 -15 11 -14 46 0 25
3 40 6 33 2 -6 8 -10 12 -8z m88 -29 c-3 6 -1 17 4 25 11 16 6 -84 -7 -134 -4
-18 1 -37 15 -62 12 -20 20 -39 17 -42 -3 -2 -11 7 -17 22 -7 14 -16 26 -21
26 -5 0 -6 29 -3 68 6 58 4 73 -15 107 l-22 40 27 -30 c15 -16 25 -25 22 -20z
m-1279 15 c-7 -10 -14 -17 -17 -15 -4 4 18 35 25 35 2 0 -1 -9 -8 -20z m400
-10 c-7 -10 -14 -17 -17 -15 -4 4 18 35 25 35 2 0 -1 -9 -8 -20z m124 -20 c2
-22 0 -40 -4 -40 -5 0 -8 18 -8 40 0 22 2 40 4 40 2 0 6 -18 8 -40z m1453 -70
c12 -14 14 -20 5 -14 -8 5 -19 9 -25 9 -5 1 -9 6 -8 11 1 6 -14 26 -32 44 -19
19 -35 38 -35 42 0 9 58 -47 95 -92z m-282 5 l5 -60 -19 35 c-20 39 -27 77 -8
50 7 -11 8 -4 4 25 -4 28 -3 35 4 25 5 -8 11 -42 14 -75z m-1699 50 c-9 -14
-18 -25 -20 -25 -7 0 10 35 20 42 17 12 17 9 0 -17z m46 21 c0 -3 -4 -8 -10
-11 -5 -3 -10 -1 -10 4 0 6 5 11 10 11 6 0 10 -2 10 -4z m1455 -26 c-3 -5 0
-10 7 -12 7 -3 5 -7 -6 -11 -13 -5 -16 -2 -14 11 1 9 -2 24 -7 32 -8 13 -7 13
8 1 9 -7 15 -17 12 -21z m-2860 10 c6 -10 11 -31 21 -92 l7 -38 -126 0 c-156
0 -167 9 -77 65 41 26 145 74 162 75 4 0 10 -4 13 -10z m2066 -17 c-12 -20
-14 -14 -5 12 4 9 9 14 11 11 3 -2 0 -13 -6 -23z m1264 9 c-3 -3 -11 0 -18 7
-9 10 -8 11 6 5 10 -3 15 -9 12 -12z m-1864 -19 c-8 -15 -10 -15 -11 -2 0 17
10 32 18 25 2 -3 -1 -13 -7 -23z m1773 3 c3 -13 9 -31 12 -40 3 -9 2 -16 -4
-16 -5 0 -12 10 -15 23 -2 12 -8 30 -12 40 -4 9 -3 17 3 17 5 0 13 -11 16 -24z
m-1434 -16 c6 -11 7 -20 2 -20 -6 0 -12 9 -15 20 -3 11 -3 20 -1 20 2 0 8 -9
14 -20z m1096 -42 c-4 -29 -11 -60 -17 -68 -8 -11 -9 -6 -4 20 3 19 9 52 12
73 8 58 16 35 9 -25z m-1526 42 c0 -5 -5 -10 -11 -10 -5 0 -7 5 -4 10 3 6 8
10 11 10 2 0 4 -4 4 -10z m669 -43 c-5 -20 -13 -39 -18 -41 -4 -3 -1 15 7 40
17 53 26 54 11 1z m-625 -21 c-9 -15 -19 -24 -22 -22 -2 3 3 17 12 32 10 14
20 23 23 21 2 -3 -3 -17 -13 -31z m249 20 c4 -10 1 -13 -8 -9 -8 3 -12 9 -9
14 7 12 11 11 17 -5z m1667 -23 c0 -19 -13 -9 -16 12 -1 8 2 13 7 9 5 -3 9
-12 9 -21z m-2009 -6 c-10 -9 -11 -8 -5 6 3 10 9 15 12 12 3 -3 0 -11 -7 -18z
m166 1 c-3 -8 -6 -5 -6 6 -1 11 2 17 5 13 3 -3 4 -12 1 -19z m683 18 c0 -2 -7
-9 -15 -16 -13 -11 -14 -10 -9 4 5 14 24 23 24 12z m849 -43 c-1 -41 -2 -44
-8 -18 -7 28 -4 65 5 65 2 0 3 -21 3 -47z m265 39 c3 -5 -1 -9 -9 -9 -8 0 -15
4 -15 9 0 4 4 8 9 8 6 0 12 -4 15 -8z m-2737 -39 c-3 -10 -5 -4 -5 12 0 17 2
24 5 18 2 -7 2 -21 0 -30z m260 31 c-10 -11 -57 -13 -57 -3 0 5 14 9 32 9 17
0 28 -3 25 -6z m1030 -31 c-3 -10 -5 -4 -5 12 0 17 2 24 5 18 2 -7 2 -21 0
-30z m511 28 c6 -1 12 -8 12 -17 0 -8 -4 -12 -10 -9 -5 3 -10 1 -10 -6 0 -7
-6 -5 -14 6 -7 11 -20 16 -29 12 -8 -3 -17 0 -20 7 -4 11 9 12 71 7z m89 -7
c-3 -3 -12 -4 -19 -1 -8 3 -5 6 6 6 11 1 17 -2 13 -5z m-49 -37 c-7 -14 -13
-17 -16 -9 -6 19 6 44 18 37 7 -4 6 -14 -2 -28z m925 16 c10 4 14 -4 14 -26 1
-18 -2 -26 -4 -18 -3 8 -18 25 -32 39 -14 13 -18 19 -9 12 10 -7 24 -10 31 -7z
m841 2 c3 -8 1 -15 -4 -15 -5 0 -10 -6 -13 -12 -2 -7 -3 -5 -2 5 2 9 -1 17 -6
17 -5 0 -9 5 -9 10 0 16 27 12 34 -5z m-2669 -37 c-9 -54 -39 -115 -49 -99 -4
6 -2 11 3 11 15 0 14 33 -1 48 -9 9 -9 15 1 25 11 10 13 9 8 -5 -4 -10 -2 -18
4 -18 10 0 13 7 23 53 10 43 18 31 11 -15z m53 22 c-14 -22 -24 -19 -15 5 4 8
11 15 17 15 6 0 6 -7 -2 -20z m1601 -22 c1 -5 -3 -8 -9 -8 -5 0 -10 12 -9 28
0 24 1 25 9 7 5 -11 9 -23 9 -27z m115 26 c10 -25 -1 -29 -14 -5 -6 12 -7 21
-1 21 5 0 12 -7 15 -16z m-1952 -121 c-26 -107 -27 -111 -7 -102 11 6 2 -5
-19 -23 -21 -18 -47 -46 -57 -63 -17 -27 -19 -28 -19 -7 0 12 5 22 10 22 6 0
10 5 10 11 0 5 -6 7 -12 3 -9 -5 -9 -3 1 9 7 9 17 14 22 11 5 -3 17 14 27 38
23 54 35 111 22 103 -12 -7 -12 -3 -3 21 6 16 7 16 15 -2 7 -16 7 -16 6 6 0
14 4 38 10 53 7 16 12 34 13 40 0 7 2 8 5 2 2 -5 -9 -60 -24 -122z m-164 77
c-2 -22 0 -40 4 -40 4 0 3 -11 -2 -25 -9 -22 -7 -25 15 -25 15 0 25 6 25 14 0
8 5 18 11 22 8 5 10 -1 7 -20 -5 -26 -4 -27 26 -21 28 5 29 5 14 -8 -10 -8
-18 -19 -18 -26 0 -6 -18 -11 -44 -11 -25 0 -48 -5 -51 -10 -4 -6 -11 -8 -16
-5 -5 4 -9 2 -9 -4 0 -5 7 -14 16 -19 14 -8 12 -10 -10 -16 -15 -4 -25 -10
-22 -14 2 -4 -5 -19 -16 -32 -16 -20 -18 -21 -12 -5 4 11 13 40 21 65 8 25 19
53 24 62 12 23 11 28 -1 28 -5 0 -10 -6 -10 -14 0 -8 -7 -16 -14 -19 -11 -4
-13 -1 -9 10 4 11 2 14 -5 9 -17 -10 -15 -27 6 -42 9 -7 12 -14 6 -14 -16 0
-64 39 -64 52 0 6 6 6 15 -2 9 -8 15 -8 15 -2 0 6 8 13 19 17 10 3 31 33 47
70 16 36 31 65 33 65 2 0 1 -18 -1 -40z m129 18 c-3 -8 -6 -5 -6 6 -1 11 2 17
5 13 3 -3 4 -12 1 -19z m2038 -39 c2 -19 6 -47 9 -64 3 -16 3 -23 0 -15 -4 8
-15 33 -26 55 -15 33 -16 36 -2 20 l16 -20 -5 20 c-2 11 -8 29 -12 40 -6 16
-5 17 4 9 7 -7 14 -27 16 -45z m-1802 21 c-3 -12 -8 -19 -11 -16 -5 6 5 36 12
36 2 0 2 -9 -1 -20z m-223 -10 c0 -5 -4 -10 -10 -10 -5 0 -10 5 -10 10 0 6 5
10 10 10 6 0 10 -4 10 -10z m63 -28 c4 -21 3 -31 -3 -27 -6 3 -10 20 -10 37 0
38 5 34 13 -10z m3145 15 c2 -11 -3 -17 -16 -17 -15 0 -19 5 -15 20 6 24 26
21 31 -3z m-3317 -24 c-12 -20 -14 -14 -5 12 4 9 9 14 11 11 3 -2 0 -13 -6
-23z m220 -33 c-27 -52 -44 -59 -49 -21 -3 16 0 21 8 16 6 -4 9 -14 6 -22 -12
-31 12 -1 29 37 10 22 21 40 25 40 5 0 -4 -22 -19 -50z m1766 -22 c-3 -8 -6
-5 -6 6 -1 11 2 17 5 13 3 -3 4 -12 1 -19z m908 -9 c-7 -20 -8 -21 -17 -4 -8
12 -7 20 3 26 18 11 22 5 14 -22z m-53 -14 c-8 -16 -9 -16 -15 -1 -4 10 -3 15
3 11 6 -3 10 -1 10 6 0 7 3 10 6 6 3 -3 2 -13 -4 -22z m-2602 -49 c0 -2 -8
-10 -17 -17 -16 -13 -17 -12 -4 4 13 16 21 21 21 13z m335 -32 c16 -19 24 -21
33 -12 14 14 131 -4 142 -22 4 -6 11 -10 16 -9 5 1 16 0 24 -3 54 -19 89 -28
103 -28 9 0 17 -6 17 -12 0 -9 19 -14 55 -15 30 0 55 3 55 8 0 5 12 2 27 -8
19 -13 28 -14 31 -5 2 6 16 12 31 12 15 0 32 5 39 12 9 9 12 9 12 -1 0 -7 4
-10 9 -7 5 4 12 0 14 -6 3 -8 6 -6 6 5 1 20 17 23 24 5 4 -10 8 -9 16 2 9 12
11 11 11 -9 0 -23 1 -23 19 -7 11 10 25 15 30 11 6 -3 11 0 12 7 0 7 7 0 15
-17 14 -30 14 -30 8 15 -5 42 -4 44 10 26 12 -15 16 -16 16 -5 1 20 72 52 82
36 4 -6 8 -7 8 -2 0 6 7 1 15 -9 9 -12 15 -15 15 -7 0 8 6 11 15 7 11 -4 15 2
15 22 1 26 1 26 16 7 8 -11 12 -30 9 -42 -3 -12 -1 -25 5 -28 5 -3 10 -1 10 4
0 6 8 12 18 12 16 1 16 2 0 6 -10 2 -18 11 -18 18 0 7 -3 21 -7 31 -4 12 -2
15 8 12 8 -3 13 -11 12 -17 -3 -13 19 -10 29 4 4 6 8 -8 9 -30 0 -23 3 -34 7
-25 19 42 36 57 58 52 13 -2 24 -8 24 -11 0 -4 30 -3 68 2 37 5 76 9 86 8 24
0 98 -71 92 -88 -3 -7 -1 -13 5 -13 6 0 6 -7 -1 -20 -9 -16 -8 -20 5 -20 20 0
19 -10 -2 -26 -12 -9 -14 -13 -5 -14 8 0 10 -5 6 -12 -5 -7 -2 -9 8 -5 12 4
14 1 11 -14 -4 -14 0 -19 13 -20 11 0 13 -3 7 -6 -10 -3 -10 -8 1 -19 21 -20
22 -18 19 24 -2 29 -1 33 6 17 5 -11 10 -37 10 -58 1 -30 6 -39 24 -46 27 -10
55 -41 38 -41 -6 0 -11 5 -11 10 0 6 -6 10 -13 10 -8 0 -14 -6 -14 -14 0 -8 5
-14 11 -13 5 1 10 -3 11 -10 0 -6 4 -15 9 -20 5 -4 6 -3 2 4 -3 6 -2 14 3 17
12 8 23 -22 14 -37 -3 -7 -2 -9 2 -4 10 8 45 -21 45 -37 0 -6 -7 -2 -16 9 -12
16 -17 17 -23 7 -6 -10 -10 -8 -14 8 -4 15 -11 21 -21 17 -9 -4 -15 -1 -13 5
1 6 -4 13 -10 15 -8 3 -13 -4 -13 -16 0 -25 -11 -33 -30 -21 -13 8 -13 11 -1
22 9 8 11 9 7 1 -3 -6 -1 -15 6 -19 7 -4 10 -4 6 0 -4 5 -3 19 2 32 8 19 5 26
-10 34 -12 7 -20 7 -20 1 0 -5 -12 -24 -26 -41 -28 -33 -28 -31 6 -100 11 -23
-9 -82 -38 -112 -20 -22 -22 -28 -9 -28 8 0 19 -4 22 -10 4 -6 -3 -6 -21 0
-15 6 -29 8 -32 5 -5 -5 -31 25 -32 38 0 4 9 2 20 -5 16 -10 23 -10 36 4 22
22 11 48 -20 48 -29 0 -57 -35 -48 -59 5 -14 4 -14 -12 -2 -12 10 -14 16 -5
21 7 5 3 13 -12 24 -13 9 -27 16 -31 16 -13 0 -9 -28 5 -33 12 -6 -27 -11 -52
-7 -9 1 -12 -4 -7 -15 3 -9 6 -23 6 -31 0 -9 5 -12 10 -9 6 3 14 -4 18 -16 6
-15 11 -19 16 -10 4 6 3 18 -3 25 -14 17 -5 43 14 43 8 0 15 -4 15 -9 0 -4 -7
-8 -15 -8 -12 0 -13 -4 -5 -19 5 -11 8 -26 5 -33 -3 -8 6 -25 20 -38 14 -13
25 -28 25 -34 0 -5 -13 2 -28 17 -18 17 -32 23 -38 17 -6 -6 -15 -5 -24 1 -13
9 -12 10 2 5 10 -3 20 -1 23 4 4 6 -8 10 -25 10 -18 0 -29 4 -25 10 3 6 0 10
-8 10 -8 0 -20 7 -27 15 -7 9 -15 13 -18 11 -5 -6 105 -116 116 -116 4 0 7 -3
7 -7 0 -5 4 -14 8 -20 6 -9 1 -13 -17 -13 -15 0 -26 6 -26 14 0 17 -80 116
-94 116 -11 0 -36 45 -36 64 0 5 7 1 16 -10 15 -18 15 -17 1 6 -9 14 -21 24
-28 22 -10 -2 -10 0 0 12 7 9 8 16 2 20 -13 9 -22 -23 -15 -57 3 -19 1 -26 -6
-22 -6 4 -9 13 -6 20 2 7 -2 21 -10 32 -9 10 -12 11 -8 3 7 -12 3 -12 -18 2
-25 17 -27 17 -31 0 -3 -10 -5 -5 -6 12 l-1 29 -25 -38 c-15 -22 -23 -42 -18
-49 4 -7 0 -3 -9 7 -10 11 -18 24 -18 31 0 6 4 5 9 -3 27 -43 38 134 12 199
l-10 25 0 -27 c-1 -16 4 -28 11 -28 6 0 8 -3 5 -7 -4 -3 -16 2 -27 12 -28 26
-34 13 -9 -18 15 -20 16 -25 5 -21 -9 3 -16 10 -16 16 0 5 -6 6 -12 2 -7 -4
-10 -4 -6 1 4 4 -3 26 -15 49 l-22 41 -3 -29 c-3 -22 -6 -26 -13 -15 -7 11 -9
9 -9 -9 0 -13 4 -20 10 -17 6 4 10 -7 10 -24 0 -43 -13 -39 -28 9 -9 30 -9 46
-2 61 14 25 9 91 -7 96 -9 3 -12 -17 -11 -74 1 -77 -28 -207 -44 -197 -4 2
-12 -5 -18 -16 -9 -16 -8 -25 1 -36 6 -8 7 -14 1 -14 -16 0 -34 27 -22 35 13
8 13 45 -1 45 -6 0 -9 7 -5 15 3 8 2 15 -2 15 -4 0 -9 11 -10 26 -1 15 2 23 8
19 6 -4 8 -11 5 -16 -4 -5 -2 -9 4 -9 5 0 9 14 9 30 -1 22 -6 30 -19 30 -9 0
-19 -3 -22 -7 -2 -5 -2 -2 -1 5 2 6 -1 12 -6 12 -6 0 -11 -3 -11 -7 -1 -5 -3
-21 -5 -37 -4 -37 -14 -47 -14 -13 0 14 -3 32 -6 41 -7 19 -24 11 -24 -10 0
-8 5 -12 10 -9 6 4 2 -9 -7 -28 -10 -19 -24 -32 -30 -30 -15 6 -18 -23 -3 -32
6 -3 10 -18 10 -33 -1 -26 -1 -26 -16 8 l-15 34 -25 -27 c-14 -15 -28 -27 -31
-27 -4 0 8 15 25 33 l33 34 -18 56 c-17 51 -37 73 -66 68 -5 -1 -5 4 -2 10 5
8 10 8 18 0 14 -14 30 -14 22 -1 -11 18 -14 51 -4 45 5 -4 7 -9 5 -13 -2 -4 2
-16 9 -26 12 -16 16 -17 28 -4 8 8 18 24 21 36 4 12 14 22 22 22 8 0 14 5 14
11 0 5 -4 7 -10 4 -5 -3 -10 0 -10 9 0 8 5 16 11 18 9 3 8 14 -2 41 -11 31
-15 35 -20 20 -7 -15 -8 -16 -8 -2 -1 23 -31 33 -32 11 -1 -9 -1 -23 0 -31 2
-7 -2 -10 -8 -6 -6 3 -11 16 -12 28 -1 20 -2 20 -8 -3 l-7 -25 -11 30 c-9 23
-12 25 -13 10 0 -11 -7 -31 -15 -45 l-14 -25 -1 35 c0 29 -2 32 -11 17 -5 -9
-8 -21 -5 -26 3 -5 -1 -14 -9 -21 -12 -10 -13 -7 -5 20 8 27 7 30 -5 20 -8 -7
-15 -20 -15 -29 0 -9 -5 -22 -11 -28 -7 -7 -3 -10 15 -8 14 2 28 -1 32 -6 3
-5 -1 -9 -10 -9 -8 0 -21 -3 -29 -6 -8 -3 -21 1 -28 8 -8 8 -23 14 -35 14 -15
0 -20 -6 -18 -22 1 -14 -4 -24 -16 -27 -24 -6 -54 -53 -46 -72 9 -24 25 -17
48 20 11 20 23 34 26 31 2 -3 -3 -17 -12 -30 -20 -32 -20 -36 3 -36 14 0 20
10 26 43 l8 42 7 -35 c4 -19 8 -30 9 -25 0 6 21 19 46 29 48 20 52 25 33 44
-9 9 -9 12 0 12 7 0 12 -6 13 -12 0 -7 4 -4 9 7 8 17 8 16 7 -7 -1 -16 -5 -28
-9 -28 -4 0 -8 -8 -8 -17 0 -14 -2 -15 -9 -5 -6 10 -11 9 -22 -4 -8 -9 -29
-23 -46 -31 -23 -9 -33 -20 -34 -36 0 -20 -1 -21 -8 -3 -7 18 -14 13 -67 -38
-87 -85 -86 -84 -78 -50 7 27 6 28 -11 14 -17 -14 -17 -14 -7 7 7 12 17 24 24
26 9 4 7 6 -3 6 -9 1 -22 -6 -29 -14 -7 -8 -16 -12 -21 -9 -5 3 -16 -1 -24
-10 -11 -11 -12 -16 -2 -20 6 -3 0 -4 -15 -1 -22 4 -26 2 -22 -10 4 -10 0 -15
-12 -15 -10 0 -31 -12 -46 -27 -40 -39 -35 -14 7 30 20 21 33 42 30 46 -3 5 2
12 11 15 9 3 12 11 8 18 -4 7 -4 10 0 6 9 -8 106 92 106 110 0 6 -10 12 -22
12 -16 0 -19 -3 -10 -9 10 -6 10 -10 -3 -21 -11 -9 -18 -10 -28 -1 -11 8 -18
6 -33 -10 -19 -22 -19 -22 5 -14 16 5 21 4 17 -4 -4 -6 -14 -11 -22 -11 -9 0
-12 -5 -8 -12 5 -9 4 -10 -3 -3 -17 16 -25 65 -12 65 7 0 9 3 6 6 -9 9 -38
-16 -32 -26 3 -5 1 -11 -4 -14 -5 -3 -12 1 -15 10 -7 18 -26 9 -26 -12 0 -8 5
-12 10 -9 17 10 11 -1 -9 -19 -19 -17 -19 -17 -17 8 2 14 -1 26 -5 26 -5 0 -9
-5 -9 -11 0 -5 -5 -7 -11 -4 -6 5 -3 13 10 22 12 8 21 19 21 25 0 7 -4 7 -12
1 -25 -19 -47 -23 -41 -7 3 8 10 14 17 13 18 -3 61 17 76 37 12 14 12 16 1 10
-8 -5 -17 -3 -23 5 -7 10 -8 8 -4 -7 4 -13 2 -21 -6 -22 -7 -1 -34 -4 -60 -7
-28 -4 -49 -2 -53 5 -3 5 -9 8 -13 6 -4 -2 -7 6 -7 19 0 13 3 21 7 19 6 -4 28
27 28 39 0 10 -40 -5 -51 -19 -13 -16 -29 -18 -29 -5 0 5 9 13 21 16 13 5 18
12 14 22 -4 12 -2 13 7 5 9 -7 18 -7 31 3 18 13 18 13 0 17 -10 2 2 9 30 16
38 10 47 16 47 35 0 16 -3 18 -9 8 -6 -9 -10 -10 -16 -2 -9 15 -35 -4 -35 -25
0 -17 -37 -19 -42 -3 -7 21 -61 20 -84 -2 -12 -12 -25 -16 -28 -11 -3 5 3 12
13 15 14 3 19 13 19 34 -1 16 5 38 11 49 11 17 11 15 6 -11 l-7 -30 36 37 c19
20 41 38 48 41 11 4 11 7 0 18 -9 10 -15 11 -20 3 -12 -19 -50 -35 -57 -24 -3
5 -2 10 3 10 4 0 24 14 43 31 l34 30 6 -23 c5 -22 16 -25 59 -13 8 2 20 4 25
4 6 1 -3 8 -19 16 -22 12 -32 12 -42 4 -11 -9 -14 -8 -14 5 0 9 5 16 11 16 5
0 7 5 3 11 -7 12 3 11 71 -7 15 -4 16 -3 6 4 -11 8 -11 10 0 15 8 3 1 4 -16 3
-16 -2 -24 -1 -17 1 7 3 9 9 6 15 -5 7 0 9 14 6 14 -4 20 -2 16 4 -13 21 41
-4 61 -28z m-567 5 c1 -8 -4 -23 -13 -34 -14 -19 -15 -18 -5 8 13 38 13 39 -9
27 -29 -15 -38 -12 -15 5 22 17 38 14 42 -6z m161 -51 c-7 -24 -13 -49 -13
-56 -1 -7 -7 -17 -15 -22 -13 -7 -13 -11 0 -27 12 -16 12 -17 -2 -6 -9 7 -19
10 -23 6 -10 -10 4 26 24 62 9 17 20 48 25 70 4 22 9 35 12 28 2 -6 -1 -31 -8
-55z m236 52 c-27 -12 -43 -12 -25 0 8 5 22 9 30 9 10 0 8 -3 -5 -9z m1792
-22 c-3 -8 -6 -5 -6 6 -1 11 2 17 5 13 3 -3 4 -12 1 -19z m-2237 -4 c0 -2 -7
-4 -15 -4 -8 0 -15 4 -15 10 0 5 7 7 15 4 8 -4 15 -8 15 -10z m1045 6 c-3 -5
-12 -10 -18 -10 -7 0 -6 4 3 10 19 12 23 12 15 0z m1272 -22 c-3 -7 -5 -2 -5
12 0 14 2 19 5 13 2 -7 2 -19 0 -25z m-357 -14 c0 -2 -9 0 -20 6 -11 6 -20 13
-20 16 0 2 9 0 20 -6 11 -6 20 -13 20 -16z m280 6 c0 -5 -2 -10 -4 -10 -3 0
-8 5 -11 10 -3 6 -1 10 4 10 6 0 11 -4 11 -10z m300 -11 c0 -6 -4 -7 -10 -4
-5 3 -10 11 -10 16 0 6 5 7 10 4 6 -3 10 -11 10 -16z m-2040 7 c0 -2 -8 -10
-17 -17 -16 -13 -17 -12 -4 4 13 16 21 21 21 13z m-164 -36 c-3 -19 -2 -29 4
-25 6 3 10 1 10 -5 0 -7 -7 -10 -15 -6 -9 3 -15 0 -15 -8 0 -7 -26 -40 -57
-73 -32 -33 -44 -43 -27 -24 47 55 96 135 85 139 -7 2 -6 9 2 17 18 21 20 18
13 -15z m-96 11 c0 -5 -7 -12 -16 -15 -14 -5 -15 -4 -4 9 14 17 20 19 20 6z
m50 -11 c0 -5 -5 -10 -11 -10 -5 0 -7 5 -4 10 3 6 8 10 11 10 2 0 4 -4 4 -10z
m2200 -12 c0 -18 -2 -20 -9 -8 -6 8 -7 18 -5 22 9 14 14 9 14 -14z m-185 -6
c-3 -3 -11 0 -18 7 -9 10 -8 11 6 5 10 -3 15 -9 12 -12z m-2383 -24 c-7 -7
-12 -8 -12 -2 0 14 12 26 19 19 2 -3 -1 -11 -7 -17z m191 7 c-3 -9 -8 -14 -10
-11 -3 3 -2 9 2 15 9 16 15 13 8 -4z m2322 5 c3 -5 1 -10 -4 -10 -6 0 -11 5
-11 10 0 6 2 10 4 10 3 0 8 -4 11 -10z m31 -18 c-3 -5 4 -21 15 -38 10 -16 19
-33 19 -39 0 -5 -11 7 -25 28 -22 32 -26 57 -9 57 3 0 3 -4 0 -8z m-2672 -43
c-3 -5 -10 -7 -15 -3 -5 3 -7 10 -3 15 3 5 10 7 15 3 5 -3 7 -10 3 -15z m83
-31 c-3 -8 -6 -5 -6 6 -1 11 2 17 5 13 3 -3 4 -12 1 -19z m2397 -17 c-7 -7
-34 21 -28 31 3 5 12 1 19 -9 7 -10 12 -20 9 -22z m-166 -6 c-3 -3 -9 2 -12
12 -6 14 -5 15 5 6 7 -7 10 -15 7 -18z m212 19 c0 -8 -19 -13 -24 -6 -3 5 1 9
9 9 8 0 15 -2 15 -3z m65 -4 c-3 -5 -12 -10 -18 -10 -7 0 -6 4 3 10 19 12 23
12 15 0z m35 -47 c0 -24 -3 -33 -9 -25 -7 12 -4 62 5 62 2 0 4 -17 4 -37z
m-102 17 c-2 -5 1 -9 5 -7 5 1 15 -9 22 -23 18 -32 19 -44 1 -28 -8 7 -12 16
-10 19 2 3 -8 12 -22 19 -18 10 -21 16 -12 22 17 10 18 10 16 -2z m-2141 -44
c0 -8 -6 -12 -15 -9 -11 5 -11 7 0 14 7 5 13 9 14 9 0 0 1 -6 1 -14z m1920 -8
c-3 -8 -6 -5 -6 6 -1 11 2 17 5 13 3 -3 4 -12 1 -19z m-2197 -46 c0 -3 -7 3
-15 14 -8 10 -14 26 -15 34 0 8 7 2 15 -14 8 -15 15 -31 15 -34z m194 23 c-9
-14 -18 -25 -21 -25 -5 0 5 18 20 38 17 22 18 13 1 -13z m1042 -23 c-4 -3 -11
0 -16 8 -15 24 -11 33 6 15 9 -9 13 -19 10 -23z m1484 13 c-14 -17 -40 -20
-40 -4 0 5 4 8 8 5 4 -2 14 -1 22 5 21 13 24 11 10 -6z m-2648 -22 c-3 -16 -7
-22 -10 -15 -4 13 4 42 11 42 2 0 2 -12 -1 -27z m437 11 c3 -3 -4 -12 -14 -22
-18 -16 -18 -16 -6 1 11 14 11 17 -1 17 -8 0 -19 -5 -26 -12 -13 -13 -15 -8
-6 16 6 15 37 14 53 0z m1760 -30 c12 -19 17 -33 12 -30 -5 3 -18 22 -30 42
-12 19 -17 33 -12 30 5 -3 18 -22 30 -42z m382 19 c13 -16 12 -17 -3 -4 -10 7
-18 15 -18 17 0 8 8 3 21 -13z m-234 -65 c-3 -8 -6 -5 -6 6 -1 11 2 17 5 13 3
-3 4 -12 1 -19z m1316 -31 c-9 -14 -23 4 -23 31 l1 27 13 -25 c8 -14 12 -28 9
-33z m-1203 -22 c0 -5 -9 5 -20 23 -26 42 -26 56 0 17 11 -16 20 -34 20 -40z
m-219 38 c13 -16 12 -17 -3 -4 -10 7 -18 15 -18 17 0 8 8 3 21 -13z m-1190
-16 c-10 -9 -11 -8 -5 6 3 10 9 15 12 12 3 -3 0 -11 -7 -18z m-874 -49 c-2
-13 -4 -5 -4 17 -1 22 1 32 4 23 2 -10 2 -28 0 -40z m1886 12 c3 -11 1 -23 -4
-26 -5 -3 -9 6 -9 20 0 31 6 34 13 6z m-663 3 c0 -5 20 -29 45 -55 24 -27 41
-48 36 -48 -5 0 -24 17 -41 37 l-33 37 -18 -23 c-11 -13 -19 -19 -19 -13 0 5
7 15 15 22 11 9 12 17 4 31 -6 13 -6 19 1 19 5 0 10 -3 10 -7z m-837 -38 c-3
-9 -8 -14 -10 -11 -3 3 -2 9 2 15 9 16 15 13 8 -4z m967 -41 c0 -19 -4 -33 -8
-30 -8 5 -4 66 4 66 2 0 4 -16 4 -36z m817 14 c-3 -8 -6 -5 -6 6 -1 11 2 17 5
13 3 -3 4 -12 1 -19z m-280 5 c-4 -3 0 -18 9 -32 l15 -26 -20 24 c-19 21 -20
41 -4 41 4 0 3 -3 0 -7z m-1474 -12 c4 -1 7 -5 7 -10 0 -15 -58 -10 -64 6 -4
10 1 12 22 9 15 -2 30 -5 35 -5z m805 -36 c-3 -3 -9 2 -12 12 -6 14 -5 15 5 6
7 -7 10 -15 7 -18z m-418 8 c0 -5 -12 -9 -27 -10 -19 -1 -22 1 -12 8 17 11 39
12 39 2z m247 -25 c-3 -7 -5 -2 -5 12 0 14 2 19 5 13 2 -7 2 -19 0 -25z m228
22 c3 -6 -1 -7 -9 -4 -18 7 -21 14 -7 14 6 0 13 -4 16 -10z m-715 -4 c0 -2 -9
-6 -20 -9 -11 -3 -18 -1 -14 4 5 9 34 13 34 5z m263 -24 c-23 -9 -45 -20 -49
-24 -12 -12 -24 -9 -24 5 0 7 19 18 43 24 64 16 76 14 30 -5z m1403 -101 c3
-14 -6 -1 -20 29 -14 30 -25 62 -25 70 0 19 37 -63 45 -99z m-1686 95 c0 -2
-8 -10 -17 -17 -16 -13 -17 -12 -4 4 13 16 21 21 21 13z m418 -16 c-7 -10 -14
-17 -17 -15 -4 4 18 35 25 35 2 0 -1 -9 -8 -20z m482 0 c0 -5 -2 -10 -4 -10
-3 0 -8 5 -11 10 -3 6 -1 10 4 10 6 0 11 -4 11 -10z m-760 -4 c0 -2 -8 -10
-17 -17 -16 -13 -17 -12 -4 4 13 16 21 21 21 13z m-189 -39 c-10 -9 -11 -8 -5
6 3 10 9 15 12 12 3 -3 0 -11 -7 -18z m983 -3 c3 -8 2 -12 -4 -9 -6 3 -10 10
-10 16 0 14 7 11 14 -7z m-1423 -21 c-8 -15 -10 -15 -11 -2 0 17 10 32 18 25
2 -3 -1 -13 -7 -23z m591 5 c-7 -7 -12 -8 -12 -2 0 14 12 26 19 19 2 -3 -1
-11 -7 -17z m-111 -11 c-10 -9 -11 -8 -5 6 3 10 9 15 12 12 3 -3 0 -11 -7 -18z
m214 13 c-3 -5 -16 -15 -28 -21 -22 -12 -22 -12 -3 10 19 21 43 30 31 11z
m679 2 c3 -5 32 -17 65 -28 34 -10 61 -23 61 -27 0 -8 -16 -5 -60 11 -11 4
-10 -1 4 -16 11 -12 14 -22 9 -22 -6 0 -16 7 -23 15 -7 9 -21 13 -31 10 -10
-4 -27 -1 -36 4 -15 9 -13 10 11 6 l30 -4 -33 29 c-20 19 -27 30 -17 30 8 0
17 -4 20 -8z m949 -37 c23 -32 17 -32 -13 0 -13 14 -19 25 -14 25 5 0 17 -12
27 -25z m-3898 5 c-3 -5 -10 -10 -16 -10 -5 0 -9 5 -9 10 0 6 7 10 16 10 8 0
12 -4 9 -10z m2758 -37 c-7 -44 -17 -60 -28 -42 -5 8 -4 10 3 5 8 -5 12 1 12
15 0 22 0 22 -22 3 -14 -13 -12 -7 8 18 16 21 30 38 31 38 1 0 -1 -17 -4 -37z
m-586 -47 c-12 -18 -24 -29 -26 -24 -3 8 36 58 45 58 2 0 -7 -15 -19 -34z
m823 9 c0 -3 6 -13 15 -21 8 -9 15 -21 15 -27 0 -7 -7 -3 -15 7 -14 19 -15 18
-21 -12 -4 -18 -11 -35 -15 -38 -11 -7 -11 -8 5 48 8 25 13 49 10 52 -2 3 -1
4 2 2 3 -2 5 -7 4 -11z m284 -2 c4 -9 9 -37 11 -62 2 -26 1 -37 -2 -26 -3 11
-11 39 -18 62 -12 41 -4 62 9 26z m243 -15 c-3 -7 -5 -2 -5 12 0 14 2 19 5 13
2 -7 2 -19 0 -25z m-1261 -13 c-4 -34 -16 -44 -16 -13 0 21 7 38 16 38 1 0 1
-11 0 -25z m798 14 c10 16 26 14 26 -3 0 -8 5 -16 11 -18 8 -3 12 -30 11 -76
0 -41 4 -72 9 -72 22 0 91 -201 75 -217 -3 -4 -6 3 -6 15 0 12 -4 22 -9 22 -5
0 -8 11 -8 25 0 34 -43 146 -54 139 -5 -2 -10 5 -13 18 -16 86 -30 138 -36
138 -4 0 -11 -25 -15 -55 -3 -30 -11 -55 -16 -55 -5 0 -6 12 -2 28 4 15 7 48
7 75 0 26 3 42 7 36 5 -8 8 -8 13 0z m516 -24 c0 -11 -66 -45 -85 -45 -12 1
-4 7 19 15 21 7 43 18 49 24 12 12 17 14 17 6z m-439 -34 c-9 -17 -7 -28 12
-58 22 -35 40 -83 32 -83 -2 0 -17 27 -34 60 -25 50 -29 64 -21 86 6 15 13 24
16 21 3 -3 1 -15 -5 -26z m-1211 16 c0 -2 -15 -16 -32 -33 l-33 -29 29 33 c28
30 36 37 36 29z m1443 -27 c4 -17 3 -19 -9 -9 -8 6 -14 18 -14 26 0 20 16 8
23 -17z m94 8 c-3 -8 -6 -5 -6 6 -1 11 2 17 5 13 3 -3 4 -12 1 -19z m-670 -35
c-3 -10 -5 -2 -5 17 0 19 2 27 5 18 2 -10 2 -26 0 -35z m813 43 c0 -3 -4 -8
-10 -11 -5 -3 -10 -1 -10 4 0 6 5 11 10 11 6 0 10 -2 10 -4z m1680 -27 c0 -5
-4 -9 -10 -9 -5 0 -10 7 -10 16 0 8 5 12 10 9 6 -3 10 -10 10 -16z m-3092
-132 c-2 -101 -13 -69 -14 41 -1 83 0 97 7 62 4 -25 7 -71 7 -103z m62 106 c0
-28 -3 -34 -10 -23 -13 20 -13 60 0 60 6 0 10 -17 10 -37z m-570 23 c0 -3 -4
-8 -10 -11 -5 -3 -10 -1 -10 4 0 6 5 11 10 11 6 0 10 -2 10 -4z m251 -19 c-10
-9 -11 -8 -5 6 3 10 9 15 12 12 3 -3 0 -11 -7 -18z m522 -86 c-7 -10 -12 8
-17 59 l-6 55 13 -55 c7 -30 11 -57 10 -59z m1025 74 c-3 -3 -9 2 -12 12 -6
14 -5 15 5 6 7 -7 10 -15 7 -18z m-97 -22 c12 -21 34 -51 48 -67 23 -26 24
-28 4 -14 -22 14 -82 95 -83 111 0 15 9 6 31 -30z m1882 -6 c-5 -7 -15 -31
-22 -54 -6 -23 -16 -45 -22 -49 -8 -4 -9 1 -4 16 5 15 4 20 -4 16 -18 -12 -13
30 10 73 19 36 22 39 36 26 10 -10 12 -20 6 -28z m-3422 10 c-10 -9 -11 -8 -5
6 3 10 9 15 12 12 3 -3 0 -11 -7 -18z m1395 -104 c-2 -3 -15 18 -28 46 -12 28
-26 51 -30 51 -4 0 -5 7 -2 15 4 10 16 -6 35 -46 16 -34 28 -64 25 -66z m-456
83 c-5 -15 -10 -32 -10 -38 0 -14 68 -1 99 19 13 8 20 10 17 4 -11 -17 -56
-37 -100 -45 -37 -7 -38 -7 -32 18 10 42 26 79 32 74 2 -3 0 -17 -6 -32z
m-1313 -8 c-3 -7 -5 -2 -5 12 0 14 2 19 5 13 2 -7 2 -19 0 -25z m2116 12 c3
-11 1 -20 -4 -20 -5 0 -9 9 -9 20 0 11 2 20 4 20 2 0 6 -9 9 -20z m-1672 -77
c-8 -15 -9 -12 -7 12 8 64 9 69 13 38 2 -18 0 -41 -6 -50z m1589 42 c0 -5 -5
-3 -10 5 -5 8 -10 20 -10 25 0 6 5 3 10 -5 5 -8 10 -19 10 -25z m-457 -5 c3
-11 1 -18 -4 -14 -5 3 -9 12 -9 20 0 20 7 17 13 -6z m39 -32 c-7 -7 -12 -8
-12 -2 0 14 12 26 19 19 2 -3 -1 -11 -7 -17z m425 0 c-3 -8 -6 -5 -6 6 -1 11
2 17 5 13 3 -3 4 -12 1 -19z m237 -50 c11 -37 11 -48 1 -52 -8 -3 -11 2 -8 12
2 9 -3 37 -12 62 -9 25 -11 40 -6 35 6 -6 17 -32 25 -57z m28 20 c-7 -7 -12
-8 -12 -2 0 14 12 26 19 19 2 -3 -1 -11 -7 -17z m-701 -1 c-9 -9 -2 -57 8 -57
8 0 9 -4 13 -73 4 -52 -6 -71 -17 -36 -6 17 -9 19 -16 8 -7 -11 -9 -9 -9 8 0
12 -5 23 -11 25 -6 2 -9 13 -7 23 3 18 6 16 19 -9 22 -39 33 -17 13 24 -9 18
-16 43 -16 56 0 13 -4 24 -9 24 -5 0 -9 4 -9 8 0 4 11 8 25 8 14 0 21 -4 16
-9z m2126 -9 c-3 -8 -6 -5 -6 6 -1 11 2 17 5 13 3 -3 4 -12 1 -19z m-1599 -45
c5 -29 5 -53 1 -53 -5 0 -9 8 -10 18 0 9 -3 35 -5 57 -7 55 2 41 14 -22z
m-888 -3 c0 -5 -5 -10 -11 -10 -5 0 -7 5 -4 10 3 6 8 10 11 10 2 0 4 -4 4 -10z
m820 -27 c0 -19 -3 -24 -10 -17 -6 6 -8 18 -4 27 9 24 14 21 14 -10z m-1093
-5 c-3 -8 -6 -5 -6 6 -1 11 2 17 5 13 3 -3 4 -12 1 -19z m-740 -20 c-3 -8 -6
-5 -6 6 -1 11 2 17 5 13 3 -3 4 -12 1 -19z m724 -29 c-5 -13 -10 -19 -10 -12
-1 15 10 45 15 40 3 -2 0 -15 -5 -28z m1114 1 c3 -6 -1 -7 -9 -4 -18 7 -21 14
-7 14 6 0 13 -4 16 -10z m-511 -44 c-10 -42 -20 -38 -16 6 3 25 8 36 14 30 5
-5 6 -21 2 -36z m506 19 c11 -13 10 -14 -4 -9 -9 3 -16 10 -16 15 0 13 6 11
20 -6z m-660 -50 c0 -11 -14 7 -31 40 -7 13 -3 12 10 -5 11 -14 21 -29 21 -35z
m-271 -2 c2 -2 0 -3 -5 -3 -5 0 -22 12 -39 26 l-30 26 35 -23 c19 -12 37 -24
39 -26z m791 23 c0 -2 -7 -6 -15 -10 -8 -3 -15 -1 -15 4 0 6 7 10 15 10 8 0
15 -2 15 -4z m-40 -37 c0 -5 -5 -7 -11 -4 -6 4 -13 -2 -16 -14 -3 -12 -9 -21
-14 -21 -14 0 -11 11 8 32 18 20 33 24 33 7z m233 -9 c-3 -11 -9 -20 -14 -20
-10 0 -12 24 -2 33 13 13 21 7 16 -13z m-513 0 c0 -5 -4 -10 -10 -10 -5 0 -10
5 -10 10 0 6 5 10 10 10 6 0 10 -4 10 -10z m-113 -32 c-3 -8 -6 -5 -6 6 -1 11
2 17 5 13 3 -3 4 -12 1 -19z m134 -5 c-12 -20 -14 -14 -5 12 4 9 9 14 11 11 3
-2 0 -13 -6 -23z m-500 -30 c13 -16 12 -17 -3 -4 -10 7 -18 15 -18 17 0 8 8 3
21 -13z m-77 -28 c-4 -8 -8 -15 -10 -15 -2 0 -4 7 -4 15 0 8 4 15 10 15 5 0 7
-7 4 -15z m622 -26 c8 -14 -14 -29 -43 -29 -22 0 -22 1 -5 19 20 22 38 26 48
10z m-1800 -336 c-18 -79 -35 -127 -35 -102 -1 15 6 50 16 78 17 54 30 69 19
24z m554 -67 c0 -3 -4 -8 -10 -11 -5 -3 -10 -1 -10 4 0 6 5 11 10 11 6 0 10
-2 10 -4z m-83 -39 c-6 -20 -27 -19 -27 2 0 14 5 19 15 14 9 -3 14 -10 12 -16z
m-74 -46 c-2 -6 4 -11 12 -11 8 0 15 -7 15 -15 0 -18 -1 -18 -36 0 -15 8 -29
21 -30 30 -1 9 2 12 9 9 7 -4 2 3 -10 15 -34 32 -28 37 10 8 17 -14 31 -30 30
-36z m30 34 c4 -8 2 -17 -3 -20 -6 -4 -10 3 -10 14 0 25 6 27 13 6z m267 -5
c0 -5 -5 -10 -11 -10 -5 0 -7 5 -4 10 3 6 8 10 11 10 2 0 4 -4 4 -10z m200 0
c-8 -5 -19 -10 -25 -10 -5 0 -3 5 5 10 8 5 20 10 25 10 6 0 3 -5 -5 -10z
m-424 -36 c-3 -8 -2 -13 3 -10 13 8 19 -76 7 -96 -9 -14 -11 -14 -27 6 -19 24
-22 95 -4 108 17 13 27 9 21 -8z m449 6 c3 -5 -1 -10 -9 -10 -9 0 -16 5 -16
10 0 6 4 10 9 10 6 0 13 -4 16 -10z m-365 -99 c0 -5 -7 -14 -15 -21 -8 -7 -15
-10 -15 -7 0 3 -3 12 -6 21 -4 12 0 16 15 16 12 0 21 -4 21 -9z m-40 -15 c0
-3 -4 -8 -10 -11 -5 -3 -10 -1 -10 4 0 6 5 11 10 11 6 0 10 -2 10 -4z"/>
<path d="M4730 8913 c0 -5 46 -15 103 -22 56 -8 108 -16 115 -18 6 -3 12 -1
12 5 0 10 -75 26 -172 38 -33 3 -58 2 -58 -3z"/>
<path d="M3716 8849 c-80 -19 -146 -41 -146 -48 0 -10 202 37 215 50 11 11
-15 10 -69 -2z"/>
<path d="M4780 5571 c0 -5 10 -11 23 -14 12 -3 32 -9 45 -12 13 -4 22 -3 22 3
0 9 -27 20 -72 28 -10 2 -18 0 -18 -5z"/>
<path d="M5105 5550 c-3 -5 -2 -10 4 -10 5 0 13 5 16 10 3 6 2 10 -4 10 -5 0
-13 -4 -16 -10z"/>
<path d="M4990 5540 c0 -5 5 -10 11 -10 5 0 7 5 4 10 -3 6 -8 10 -11 10 -2 0
-4 -4 -4 -10z"/>
<path d="M5250 5530 c0 -5 7 -7 15 -4 8 4 15 8 15 10 0 2 -7 4 -15 4 -8 0 -15
-4 -15 -10z"/>
<path d="M4652 5517 c-10 -12 -9 -16 4 -21 21 -8 23 -6 15 17 -6 17 -9 17 -19
4z"/>
<path d="M4588 5513 c7 -3 16 -2 19 1 4 3 -2 6 -13 5 -11 0 -14 -3 -6 -6z"/>
<path d="M3068 5463 c7 -3 16 -2 19 1 4 3 -2 6 -13 5 -11 0 -14 -3 -6 -6z"/>
<path d="M3415 5460 c-3 -5 -1 -10 4 -10 6 0 11 5 11 10 0 6 -2 10 -4 10 -3 0
-8 -4 -11 -10z"/>
<path d="M3625 5450 c3 -5 8 -10 11 -10 2 0 4 5 4 10 0 6 -5 10 -11 10 -5 0
-7 -4 -4 -10z"/>
<path d="M3137 5433 c-13 -13 -7 -21 13 -16 11 3 17 9 14 14 -6 11 -18 12 -27
2z"/>
<path d="M3480 5170 c-13 -9 -13 -10 0 -9 8 0 24 4 35 9 l20 9 -20 0 c-11 0
-27 -4 -35 -9z"/>
<path d="M3386 5143 c-71 -25 -88 -36 -98 -65 -4 -9 -31 -23 -65 -33 -32 -9
-65 -22 -73 -29 -8 -7 -23 -16 -32 -19 -10 -4 -18 -11 -18 -17 0 -7 6 -8 19 0
11 5 30 10 43 10 17 -1 9 -8 -31 -28 -48 -24 -51 -27 -30 -33 22 -6 22 -7 -11
-16 l-35 -10 37 -7 c20 -3 38 -10 40 -14 4 -10 125 -55 153 -57 11 -1 20 -7
20 -13 0 -12 34 -41 49 -42 4 0 -2 8 -15 18 -17 15 -19 21 -9 27 9 6 11 4 5
-5 -6 -10 -4 -12 9 -7 10 4 20 7 22 7 3 0 2 5 -1 10 -8 13 1 13 27 -1 11 -6
35 -12 54 -14 30 -3 33 -1 24 15 -6 10 -20 22 -31 25 -16 5 -18 9 -9 15 7 5
25 4 38 -1 14 -6 32 -7 39 -5 8 3 12 2 9 -3 -3 -4 8 -8 24 -9 15 0 42 -8 59
-16 39 -21 48 -20 28 2 -16 17 -13 18 53 16 42 -1 67 3 64 8 -4 5 8 2 26 -7
18 -9 29 -12 26 -6 -5 8 1 8 19 1 15 -6 36 -10 48 -10 18 0 19 2 7 10 -26 17
-1 11 39 -10 28 -14 52 -18 92 -15 29 2 58 0 64 -4 5 -5 20 -11 33 -14 19 -4
21 -3 11 9 -15 19 1 18 29 -2 12 -8 26 -13 31 -10 5 4 12 0 15 -6 3 -7 4 0 0
17 -5 28 -4 29 13 14 25 -23 67 -44 59 -30 -10 15 7 14 23 -1 11 -10 13 -10 7
0 -4 7 -1 12 8 12 8 0 16 -5 18 -12 2 -6 14 -12 26 -13 18 -1 20 1 10 13 -10
11 -8 17 7 28 10 8 14 14 7 14 -6 0 -16 10 -23 21 -8 15 -8 19 0 15 6 -4 11
-4 11 1 0 4 -34 24 -74 43 -41 19 -72 39 -69 43 3 5 -11 7 -30 6 -20 -2 -39 0
-43 4 -4 4 -2 7 5 7 7 0 9 5 6 10 -3 6 -15 10 -26 10 -11 0 -17 4 -14 10 3 6
-1 7 -9 4 -9 -3 -16 -1 -16 5 0 6 -9 11 -20 11 -11 0 -20 6 -20 13 0 6 -5 4
-11 -5 -5 -10 -15 -18 -22 -18 -7 0 -6 4 3 10 11 7 8 9 -15 8 -40 -1 -79 9
-83 22 -2 6 -10 6 -20 1 -18 -9 -144 3 -164 15 -7 5 -8 2 -3 -6 6 -10 4 -11
-11 -5 -10 5 -45 11 -76 13 -59 4 -77 17 -35 25 12 2 6 3 -13 2 -19 -2 -42 -5
-50 -7 -8 -3 -11 -3 -7 0 14 7 -46 33 -65 29 -10 -3 -15 -1 -12 4 3 5 -2 12
-11 15 -14 6 -14 8 2 20 23 17 21 17 -61 -13z m11 -69 c-3 -3 -12 -4 -19 -1
-8 3 -5 6 6 6 11 1 17 -2 13 -5z m-167 -44 c0 -5 -5 -10 -11 -10 -5 0 -7 5 -4
10 3 6 8 10 11 10 2 0 4 -4 4 -10z m437 -26 c-3 -3 -12 -4 -19 -1 -8 3 -5 6 6
6 11 1 17 -2 13 -5z m-522 -53 c-3 -6 3 -14 12 -20 16 -9 16 -10 2 -11 -17 0
-32 23 -22 34 10 9 15 7 8 -3z m40 -61 c8 -13 -5 -13 -25 0 -13 8 -13 10 2 10
9 0 20 -4 23 -10z m160 -50 c3 -5 1 -10 -4 -10 -6 0 -11 5 -11 10 0 6 2 10 4
10 3 0 8 -4 11 -10z"/>
<path d="M3648 5083 c6 -2 18 -2 25 0 6 3 1 5 -13 5 -14 0 -19 -2 -12 -5z"/>
<path d="M3935 5060 c-3 -5 1 -10 9 -10 9 0 16 5 16 10 0 6 -4 10 -9 10 -6 0
-13 -4 -16 -10z"/>
<path d="M5640 4941 c12 -8 6 -11 -27 -11 -24 0 -43 -5 -43 -10 0 -6 -11 -8
-25 -4 -16 4 -25 2 -25 -6 0 -8 -12 -11 -35 -8 -26 3 -34 1 -31 -9 4 -9 -5
-13 -29 -13 -18 0 -36 -4 -39 -9 -3 -5 -15 -7 -26 -4 -14 4 -20 1 -18 -8 2 -8
-7 -15 -20 -17 -12 -2 -20 -8 -17 -13 4 -5 -4 -9 -17 -9 -20 0 -65 -19 -45
-20 4 0 3 -9 -2 -19 -9 -16 -8 -18 9 -14 30 8 24 -12 -7 -24 l-28 -11 30 0
c17 0 57 4 90 8 33 5 96 11 140 13 44 3 92 8 108 12 22 6 26 4 21 -8 -6 -16
20 -16 161 -2 45 5 56 3 45 -5 -12 -8 -8 -9 15 -4 17 4 40 11 53 15 32 12 36
11 23 -5 -10 -12 -6 -13 32 -1 30 9 48 10 55 3 6 -6 21 -4 43 7 23 12 34 14
37 6 2 -6 20 -11 40 -12 34 -1 35 -2 12 -10 -18 -6 -12 -7 23 -3 51 6 61 -1
22 -16 -14 -5 -25 -16 -25 -24 0 -13 6 -13 48 -1 26 8 57 15 70 15 13 0 20 4
17 10 -3 6 1 10 9 10 9 0 16 4 16 9 0 6 -13 6 -32 -1 -43 -13 -76 -20 -60 -12
10 5 9 9 -5 21 -17 13 -17 14 2 9 11 -3 27 -1 35 4 11 7 3 10 -30 10 -40 1
-42 2 -21 11 14 5 31 7 38 4 9 -3 11 0 7 6 -4 7 -26 9 -56 7 -52 -5 -54 7 -3
15 29 4 28 4 -6 6 -19 0 -40 6 -46 12 -8 8 -17 7 -32 -3 -15 -9 -24 -10 -29
-2 -4 6 -36 20 -72 31 -37 11 -64 25 -62 31 3 16 -19 14 -42 -3 -11 -8 -25
-15 -30 -15 -6 0 -4 5 4 11 12 8 9 9 -12 5 -15 -3 -30 -1 -33 4 -4 6 -10 8
-14 6 -4 -3 -26 1 -48 9 -23 8 -52 16 -65 19 -12 2 -32 7 -43 11 -16 6 -17 5
-5 -4z m144 -50 c4 -5 -3 -7 -14 -4 -23 6 -26 13 -6 13 8 0 17 -4 20 -9z m160
-39 c3 -5 -8 -6 -25 -4 -16 2 -29 6 -29 8 0 8 49 4 54 -4z m53 -18 c-3 -3 -12
-4 -19 -1 -8 3 -5 6 6 6 11 1 17 -2 13 -5z m121 -15 c-7 -5 -33 -8 -58 -7 -40
1 -41 2 -10 5 19 3 39 8 44 13 5 5 15 6 23 3 12 -5 12 -7 1 -14z"/>
<path d="M5838 4933 c7 -3 16 -2 19 1 4 3 -2 6 -13 5 -11 0 -14 -3 -6 -6z"/>
<path d="M6020 4931 c0 -8 52 -22 58 -16 2 1 -11 7 -27 13 -17 6 -31 7 -31 3z"/>
<path d="M5848 4913 c6 -2 18 -2 25 0 6 3 1 5 -13 5 -14 0 -19 -2 -12 -5z"/>
<path d="M6030 4906 c0 -2 7 -7 16 -10 8 -3 12 -2 9 4 -6 10 -25 14 -25 6z"/>
<path d="M5964 4891 c3 -5 16 -11 28 -14 22 -6 22 -5 4 8 -22 17 -40 20 -32 6z"/>
<path d="M6100 4890 c12 -8 12 -10 -5 -10 -14 -1 -10 -5 15 -16 19 -8 48 -13
65 -11 26 3 25 4 -8 5 -21 1 -36 6 -32 11 3 6 -3 15 -14 20 -25 14 -41 14 -21
1z"/>
<path d="M3080 4840 c0 -7 -6 -10 -13 -7 -8 3 -19 2 -26 -3 -9 -5 -5 -9 13
-14 14 -3 26 -11 26 -16 0 -12 80 -54 88 -46 3 3 0 6 -6 6 -6 0 -9 6 -6 13 3
8 -5 19 -18 25 l-23 12 23 -6 c12 -3 22 -1 22 5 0 18 63 12 98 -9 35 -22 46
-25 38 -11 -11 16 -81 45 -118 47 -20 1 -50 5 -67 9 -21 4 -31 3 -31 -5z m60
-66 c0 -2 -9 0 -20 6 -11 6 -20 13 -20 16 0 2 9 0 20 -6 11 -6 20 -13 20 -16z"/>
<path d="M3820 4820 c8 -5 24 -10 34 -10 26 0 18 6 -19 14 -22 5 -26 4 -15 -4z"/>
<path d="M3167 4784 c3 -8 9 -14 14 -14 16 0 18 -1 54 -16 42 -17 45 -13 9 11
-40 26 -84 37 -77 19z"/>
<path d="M3061 4777 c2 -1 13 -9 24 -17 19 -14 19 -14 6 3 -7 9 -18 17 -24 17
-6 0 -8 -1 -6 -3z"/>
<path d="M5958 4713 c7 -3 16 -2 19 1 4 3 -2 6 -13 5 -11 0 -14 -3 -6 -6z"/>
<path d="M6235 4705 c-57 -13 -95 -30 -95 -44 0 -10 3 -12 8 -5 4 6 23 14 42
17 28 5 31 5 16 -4 -15 -9 -16 -13 -5 -20 25 -15 55 -10 83 16 15 14 32 25 39
25 7 0 6 4 -3 10 -13 8 -57 11 -85 5z"/>
<path d="M3588 4675 c-107 -17 -261 -67 -309 -101 -39 -27 -107 -94 -95 -94
13 0 49 22 101 60 57 43 222 104 250 94 14 -6 16 -4 10 6 -5 8 -4 11 1 7 5 -3
35 0 65 8 69 16 211 15 216 -2 3 -7 -13 -11 -47 -11 -27 -1 -55 -4 -60 -7 -6
-3 -10 -2 -10 3 0 13 -129 -13 -181 -37 -24 -11 -59 -25 -76 -31 -18 -7 -33
-17 -33 -22 0 -5 -4 -7 -9 -3 -12 7 -143 -42 -153 -58 -4 -7 -11 -12 -15 -13
-24 -2 -43 -18 -43 -35 0 -10 -5 -19 -11 -19 -6 0 -8 -7 -5 -16 3 -8 2 -12 -4
-9 -6 3 -10 1 -10 -4 0 -6 7 -11 16 -11 8 0 12 -4 9 -10 -8 -13 1 -13 28 1 21
11 21 10 -2 -15 -14 -14 -21 -26 -17 -26 11 0 104 67 135 97 26 25 46 30 38
10 -3 -9 4 -12 25 -11 21 2 26 -1 19 -9 -7 -9 3 -12 37 -12 38 0 47 -3 46 -17
-1 -11 4 -14 14 -11 11 5 13 3 7 -8 -5 -7 4 -3 20 9 20 16 32 19 39 12 8 -8 8
-13 0 -18 -6 -4 -14 -18 -18 -32 -6 -22 -5 -23 6 -9 7 9 19 14 27 11 8 -3 11
0 7 6 -3 6 1 9 11 7 10 -2 22 -4 27 -4 5 -1 2 -9 -5 -18 -13 -16 -12 -17 3 -5
21 17 38 8 39 -21 l0 -22 11 23 c7 13 17 21 25 18 16 -6 16 -1 3 24 -8 15 -7
18 3 14 17 -6 50 -61 43 -72 -3 -5 2 -9 10 -9 10 0 13 6 8 16 -10 25 -10 36 0
39 9 2 16 -14 18 -45 1 -7 6 -13 11 -13 5 0 7 16 5 35 -2 19 -1 35 3 35 15 0
29 -29 23 -46 -5 -16 -4 -16 5 -4 6 8 11 24 11 35 1 14 5 10 17 -15 l16 -35 7
35 c6 29 8 31 9 10 2 -14 5 -19 8 -12 2 6 8 10 13 7 4 -3 6 5 2 17 -3 13 -1
19 6 15 5 -4 12 -2 14 4 6 18 38 -2 44 -28 5 -16 9 -21 14 -13 6 9 11 7 19 -6
8 -15 10 -16 11 -3 0 8 -5 20 -12 27 -6 6 -8 15 -4 19 4 5 13 0 20 -10 18 -24
29 -21 20 5 -7 22 -6 22 20 4 15 -10 34 -15 41 -12 8 3 16 0 19 -7 3 -9 6 -9
13 0 13 18 80 44 97 37 26 -10 20 36 -10 80 -20 29 -23 40 -14 46 7 4 10 12 6
18 -3 6 0 13 6 16 22 9 -61 69 -151 110 l-86 38 -165 4 c-111 2 -193 -1 -252
-11z m282 -33 c-25 -4 -35 2 -26 17 5 7 13 7 27 -2 20 -12 20 -12 -1 -15z m70
-13 c0 -5 -4 -9 -8 -9 -5 0 -9 7 -9 15 0 8 4 12 9 9 4 -3 8 -9 8 -15z m87 -23
c2 -2 0 -7 -6 -11 -6 -3 -11 0 -11 7 0 11 -2 10 -9 0 -7 -11 -9 -11 -14 1 -4
12 0 15 15 12 11 -3 23 -6 25 -9z m-70 -75 c-8 24 32 12 59 -17 12 -13 25 -20
29 -16 4 4 5 -6 1 -23 -4 -16 -8 -30 -9 -31 -58 -26 -79 -33 -114 -39 -48 -8
-51 -3 -23 40 11 17 20 40 20 52 0 12 3 29 6 37 6 15 8 15 21 -1 12 -15 14
-15 10 -2z m-447 -51 c0 -5 -5 -10 -11 -10 -5 0 -7 5 -4 10 3 6 8 10 11 10 2
0 4 -4 4 -10z m55 -16 c21 -32 16 -37 -23 -23 -27 9 -30 13 -19 30 16 25 21
24 42 -7z m285 12 c0 -3 -4 -8 -10 -11 -5 -3 -10 -1 -10 4 0 6 5 11 10 11 6 0
10 -2 10 -4z m-155 -124 c-3 -3 -11 0 -18 7 -9 10 -8 11 6 5 10 -3 15 -9 12
-12z"/>
<path d="M6358 4673 c-10 -2 -18 -10 -18 -16 0 -9 -3 -8 -8 1 -7 9 -18 7 -50
-10 -23 -13 -42 -27 -42 -31 0 -5 4 -6 8 -3 5 3 23 8 40 11 37 6 134 56 106
54 -10 -1 -27 -3 -36 -6z"/>
<path d="M4265 4590 c3 -5 13 -10 21 -10 8 0 12 5 9 10 -3 6 -13 10 -21 10 -8
0 -12 -4 -9 -10z"/>
<path d="M5420 4580 c-93 -29 -170 -78 -170 -107 0 -17 11 -16 38 3 35 24 26
11 -34 -49 -60 -60 -66 -83 -24 -104 61 -29 99 -43 112 -39 41 13 69 16 63 6
-4 -6 9 -10 34 -10 36 0 41 -3 41 -22 1 -21 2 -22 14 -5 22 29 38 21 32 -15
-6 -31 -6 -32 5 -8 11 23 12 23 16 5 3 -11 9 -24 14 -29 13 -15 39 14 35 39
-3 18 -1 22 15 18 10 -3 19 -14 19 -24 0 -10 4 -20 9 -23 4 -3 6 6 3 19 -4 25
-3 25 67 25 40 0 70 4 67 9 -3 5 1 14 8 20 8 7 24 33 36 58 21 44 21 45 41 27
12 -10 28 -19 37 -19 10 0 16 -6 14 -12 -1 -7 8 -13 20 -14 15 0 18 -3 8 -6
-8 -4 -21 -12 -28 -20 -7 -7 -20 -13 -28 -13 -9 0 -12 -5 -8 -11 4 -7 25 -9
55 -7 27 3 49 2 49 -1 0 -4 16 -5 35 -3 30 4 42 -2 80 -37 58 -54 73 -52 27 2
-15 16 -14 17 4 11 14 -5 12 -1 -7 14 -15 12 -29 34 -32 49 -8 42 -67 96 -141
132 -35 18 -66 36 -68 41 -2 4 -19 10 -38 11 -19 2 -38 8 -41 12 -4 5 -20 10
-36 11 -16 2 -35 6 -41 10 -7 4 -22 9 -34 11 -12 3 -26 9 -32 15 -13 13 122 4
161 -11 15 -6 41 -13 57 -15 43 -5 135 -44 176 -73 36 -26 46 -36 93 -92 l27
-33 0 27 c0 84 -200 187 -429 222 -106 16 -279 19 -321 5z m194 -32 c-3 -4
-16 -8 -30 -8 -13 0 -24 4 -24 8 0 5 13 9 30 9 16 0 27 -4 24 -9z m-194 -130
c0 6 7 12 15 12 18 0 20 -16 3 -23 -8 -4 -7 -6 3 -6 11 -1 20 -16 27 -41 10
-39 9 -40 -11 -34 -49 14 -71 31 -78 57 -6 22 -5 27 6 24 9 -4 11 1 8 16 -5
22 -5 22 10 2 9 -11 17 -15 17 -7z m331 -56 c-6 -2 -8 -8 -5 -14 4 -6 -2 -8
-16 -3 -19 6 -21 4 -15 -14 4 -13 2 -21 -5 -21 -21 0 -21 28 2 53 18 20 26 23
36 14 10 -8 11 -12 3 -15z m-171 -131 c0 -6 -4 -13 -10 -16 -5 -3 -10 1 -10 9
0 9 5 16 10 16 6 0 10 -4 10 -9z"/>
<path d="M4330 4570 c19 -13 30 -13 30 0 0 6 -10 10 -22 10 -19 0 -20 -2 -8
-10z"/>
<path d="M4345 4530 c-4 -7 -3 -15 2 -19 5 -3 14 -14 20 -25 8 -14 11 -15 15
-4 8 20 -27 65 -37 48z"/>
<path d="M4250 4514 c0 -18 37 -38 45 -24 9 14 -1 27 -25 33 -13 3 -20 0 -20
-9z"/>
<path d="M4340 4444 c0 -8 5 -12 10 -9 6 3 10 10 10 16 0 5 -4 9 -10 9 -5 0
-10 -7 -10 -16z"/>
<path d="M3128 4423 c6 -2 18 -2 25 0 6 3 1 5 -13 5 -14 0 -19 -2 -12 -5z"/>
<path d="M3475 4390 c-3 -5 -2 -10 4 -10 5 0 13 5 16 10 3 6 2 10 -4 10 -5 0
-13 -4 -16 -10z"/>
<path d="M4087 4333 c-4 -6 0 -14 9 -17 9 -4 14 -9 11 -12 -3 -3 -15 -1 -26 6
-20 10 -21 9 -16 -17 3 -15 3 -23 -1 -16 -4 10 -10 10 -25 0 -22 -14 -26 -32
-5 -24 9 4 17 -3 21 -16 7 -22 7 -22 15 3 4 14 9 18 9 10 1 -12 3 -12 10 -2 7
11 9 11 14 -2 7 -19 28 -22 25 -4 -2 7 7 14 19 16 24 4 29 42 6 42 -7 0 -13 5
-13 10 0 6 -9 10 -19 10 -11 0 -21 5 -23 12 -3 8 -6 9 -11 1z"/>
<path d="M4200 4330 c20 -13 33 -13 25 0 -3 6 -14 10 -23 10 -15 0 -15 -2 -2
-10z"/>
<path d="M4335 4310 c-3 -5 -1 -10 4 -10 6 0 11 5 11 10 0 6 -2 10 -4 10 -3 0
-8 -4 -11 -10z"/>
<path d="M4300 4260 c0 -5 5 -10 11 -10 5 0 7 5 4 10 -3 6 -8 10 -11 10 -2 0
-4 -4 -4 -10z"/>
<path d="M4295 4230 c3 -5 8 -10 11 -10 2 0 4 5 4 10 0 6 -5 10 -11 10 -5 0
-7 -4 -4 -10z"/>
<path d="M5386 4224 c-12 -31 -6 -38 14 -16 24 25 25 32 6 32 -8 0 -17 -7 -20
-16z"/>
<path d="M4090 4221 c0 -5 5 -13 10 -16 6 -3 10 -2 10 4 0 5 -4 13 -10 16 -5
3 -10 2 -10 -4z"/>
<path d="M5740 4223 c8 -4 23 -16 33 -27 16 -18 18 -19 13 -3 -3 10 -6 23 -6
28 0 5 -12 9 -27 8 -16 0 -22 -3 -13 -6z"/>
<path d="M5658 4208 c-7 -17 8 -46 18 -35 4 4 3 17 -3 29 -7 17 -11 19 -15 6z"/>
<path d="M5690 4212 c0 -19 12 -42 22 -42 14 0 5 43 -9 48 -7 2 -13 -1 -13 -6z"/>
<path d="M5480 4189 c0 -5 5 -7 10 -4 6 3 10 8 10 11 0 2 -4 4 -10 4 -5 0 -10
-5 -10 -11z"/>
<path d="M4136 3514 c-8 -21 -9 -20 13 -21 14 -1 17 3 14 18 -6 23 -19 25 -27
3z"/>
<path d="M4058 3458 c-2 -13 -9 -22 -16 -20 -6 1 -12 -3 -12 -8 0 -11 -11 -26
-46 -65 -18 -20 -25 -68 -15 -104 0 -3 15 8 31 24 17 16 30 24 30 17 0 -6 8
-10 18 -9 13 1 22 14 31 45 6 24 21 57 33 73 l23 30 -25 19 c-33 26 -48 25
-52 -2z"/>
<path d="M4030 3266 c0 -9 30 -14 35 -6 4 6 -3 10 -14 10 -12 0 -21 -2 -21 -4z"/>
<path d="M5090 3132 c-95 -29 -253 -133 -188 -123 4 0 12 -8 17 -18 15 -28 66
-44 82 -25 6 8 17 14 24 14 7 0 15 9 18 19 3 14 11 18 26 14 13 -3 21 -1 21 7
0 7 7 10 16 6 9 -3 12 -2 9 5 -4 6 1 13 11 15 17 5 22 27 15 73 -1 11 -32 19
-51 13z"/>
<path d="M3850 3077 c0 -9 -20 -36 -45 -61 -25 -26 -45 -51 -45 -56 0 -5 -14
-25 -31 -45 -17 -19 -25 -35 -18 -35 8 0 6 -8 -7 -22 -10 -13 -12 -17 -4 -10
8 6 21 12 29 12 18 1 86 102 96 143 4 15 11 30 16 33 17 10 30 42 19 49 -5 3
-10 0 -10 -8z"/>
<path d="M4992 2916 c10 -7 14 -17 10 -21 -4 -5 -1 -5 6 -1 20 12 14 32 -10
33 -21 2 -22 1 -6 -11z"/>
<path d="M4600 2906 c0 -6 9 -12 20 -12 11 0 20 3 20 7 0 4 -9 9 -20 12 -12 3
-20 0 -20 -7z"/>
<path d="M4675 2880 c3 -5 8 -10 11 -10 2 0 4 5 4 10 0 6 -5 10 -11 10 -5 0
-7 -4 -4 -10z"/>
<path d="M4963 2873 c-19 -7 -16 -21 10 -34 20 -11 21 -11 9 4 -8 9 -11 21 -7
27 7 11 6 11 -12 3z"/>
<path d="M3864 2854 c-18 -14 -18 -14 6 -3 31 14 36 19 24 19 -6 0 -19 -7 -30
-16z"/>
<path d="M5033 2847 c15 -15 32 -27 37 -27 5 0 14 -8 20 -17 10 -17 11 -17 8
0 -2 10 -23 29 -48 44 l-45 26 28 -26z"/>
<path d="M4840 2856 c0 -2 8 -10 18 -17 15 -13 16 -12 3 4 -13 16 -21 21 -21
13z"/>
<path d="M5120 2781 c0 -10 19 -25 25 -20 1 2 -3 10 -11 17 -8 7 -14 8 -14 3z"/>
<path d="M5160 2761 c0 -5 7 -15 17 -22 15 -13 15 -12 4 9 -12 23 -21 28 -21
13z"/>
<path d="M6485 2690 c3 -5 8 -10 11 -10 2 0 4 5 4 10 0 6 -5 10 -11 10 -5 0
-7 -4 -4 -10z"/>
<path d="M3595 2679 c-4 -6 -5 -12 -2 -15 2 -3 7 2 10 11 7 17 1 20 -8 4z"/>
<path d="M5072 2655 c0 -16 2 -22 5 -12 2 9 2 23 0 30 -3 6 -5 -1 -5 -18z"/>
<path d="M5440 2636 c0 -2 14 -14 30 -26 17 -12 30 -19 30 -16 0 2 -13 14 -30
26 -16 12 -30 19 -30 16z"/>
<path d="M5566 2589 c12 -13 27 -34 34 -47 11 -22 10 -23 -10 -12 -19 10 -20
10 -8 -9 6 -11 15 -18 19 -15 4 2 10 0 14 -6 3 -5 11 -10 16 -10 16 0 -43 100
-66 112 -19 10 -19 10 1 -13z"/>
<path d="M5510 2576 c0 -2 11 -11 24 -20 18 -11 27 -13 32 -4 4 6 3 8 -3 5 -6
-4 -16 0 -23 8 -11 14 -30 21 -30 11z"/>
<path d="M3485 2509 c-11 -17 1 -21 15 -4 8 9 8 15 2 15 -6 0 -14 -5 -17 -11z"/>
<path d="M2902 2497 c-7 -8 -9 -17 -5 -20 3 -4 1 -7 -5 -7 -7 0 -12 -7 -12
-15 0 -25 17 -17 30 15 14 34 9 48 -8 27z"/>
<path d="M5600 2482 c0 -6 5 -14 11 -17 6 -4 8 -13 5 -20 -2 -7 7 -23 22 -36
l27 -24 -23 26 c-13 15 -19 28 -13 30 5 2 1 15 -10 28 -10 13 -19 18 -19 13z"/>
<path d="M3450 2469 c0 -5 5 -7 10 -4 6 3 10 8 10 11 0 2 -4 4 -10 4 -5 0 -10
-5 -10 -11z"/>
<path d="M6360 2472 c0 -5 7 -15 15 -22 8 -7 15 -8 15 -2 0 5 -7 15 -15 22 -8
7 -15 8 -15 2z"/>
<path d="M3046 2427 c3 -10 9 -15 12 -12 3 3 0 11 -7 18 -10 9 -11 8 -5 -6z"/>
<path d="M5690 2400 c0 -5 5 -10 11 -10 5 0 7 5 4 10 -3 6 -8 10 -11 10 -2 0
-4 -4 -4 -10z"/>
<path d="M5641 2344 c0 -11 3 -14 6 -6 3 7 2 16 -1 19 -3 4 -6 -2 -5 -13z"/>
<path d="M3210 2261 c0 -6 4 -13 10 -16 6 -3 7 1 4 9 -7 18 -14 21 -14 7z"/>
<path d="M3250 2245 c-8 -9 -8 -15 -2 -15 12 0 26 19 19 26 -2 2 -10 -2 -17
-11z"/>
<path d="M6186 2220 c8 -31 24 -50 24 -29 0 8 -7 24 -16 35 -14 18 -15 18 -8
-6z"/>
<path d="M5887 2130 c-3 -11 -1 -20 4 -20 5 0 9 9 9 20 0 11 -2 20 -4 20 -2 0
-6 -9 -9 -20z"/>
<path d="M5851 2114 c0 -11 3 -14 6 -6 3 7 2 16 -1 19 -3 4 -6 -2 -5 -13z"/>
<path d="M5946 2105 c-20 -30 -21 -41 -2 -26 12 10 29 51 21 51 -1 0 -10 -11
-19 -25z"/>
<path d="M5775 2100 c-9 -14 4 -88 17 -96 7 -4 7 2 2 17 -4 13 -8 39 -9 57 0
35 -1 37 -10 22z"/>
<path d="M4365 2660 c-3 -6 1 -7 9 -4 18 7 21 14 7 14 -6 0 -13 -4 -16 -10z"/>
<path d="M3367 2146 c-4 -10 0 -12 14 -9 22 6 26 23 5 23 -8 0 -16 -6 -19 -14z"/>
<path d="M3415 2140 c-8 -13 5 -13 25 0 13 8 13 10 -2 10 -9 0 -20 -4 -23 -10z"/>
<path d="M4843 1975 c0 -22 2 -30 4 -17 2 12 2 30 0 40 -3 9 -5 -1 -4 -23z"/>
<path d="M4807 1993 c-4 -3 -7 -11 -7 -17 0 -6 5 -5 12 2 6 6 9 14 7 17 -3 3
-9 2 -12 -2z"/>
<path d="M4900 1980 c0 -5 5 -10 10 -10 6 0 10 5 10 10 0 6 -4 10 -10 10 -5 0
-10 -4 -10 -10z"/>
<path d="M3880 1930 c-8 -5 -12 -12 -9 -15 4 -3 12 1 19 10 14 17 11 19 -10 5z"/>
<path d="M3791 1906 c-16 -9 -20 -16 -12 -20 6 -4 9 -12 6 -17 -8 -12 -1 -11
30 3 14 6 25 16 25 21 0 5 -7 4 -15 -3 -18 -15 -20 1 -3 18 16 16 -1 15 -31
-2z"/>
<path d="M4083 1875 c-3 -9 -3 -18 -1 -21 3 -3 8 4 11 16 6 23 -1 27 -10 5z"/>
<path d="M3820 1849 c0 -5 5 -7 10 -4 6 3 10 8 10 11 0 2 -4 4 -10 4 -5 0 -10
-5 -10 -11z"/>
<path d="M4570 1788 c-8 -24 -14 -50 -15 -60 0 -9 -3 -20 -7 -24 -15 -14 -8
-26 8 -13 8 7 13 21 11 31 -3 10 -1 18 3 18 5 0 11 8 14 18 3 9 3 0 0 -20 l-5
-37 31 9 c16 5 30 6 30 3 0 -3 7 0 15 7 8 7 15 17 15 23 0 6 -7 2 -15 -9 -13
-17 -14 -16 -5 15 5 19 7 37 4 40 -15 15 -30 3 -41 -34 l-11 -40 -1 45 c-2 67
-15 79 -31 28z"/>
<path d="M3870 1800 c-13 -8 -12 -10 3 -10 9 0 17 5 17 10 0 12 -1 12 -20 0z"/>
<path d="M4110 1790 c-14 -11 -20 -20 -15 -19 13 0 50 28 44 33 -2 3 -15 -4
-29 -14z"/>
<path d="M4301 1789 c-18 -17 -20 -24 -10 -35 9 -11 15 -12 26 -3 8 7 12 18 9
25 -3 7 0 14 7 17 7 2 8 5 1 10 -6 3 -21 -3 -33 -14z"/>
<path d="M4233 1785 c4 -8 2 -17 -3 -20 -6 -4 -10 -11 -10 -16 0 -6 6 -7 13
-2 6 4 15 8 19 8 3 0 10 4 15 9 4 5 3 6 -3 3 -7 -4 -14 0 -17 7 -3 8 -1 17 6
20 7 2 4 5 -7 5 -12 1 -16 -4 -13 -14z"/>
<path d="M4686 1783 c-6 -14 -5 -15 5 -6 7 7 10 15 7 18 -3 3 -9 -2 -12 -12z"/>
<path d="M4950 1785 c0 -13 33 -55 43 -55 5 0 2 10 -9 22 -17 19 -17 21 -1 15
9 -4 17 -2 17 2 0 5 -7 12 -16 15 -19 7 -34 8 -34 1z"/>
<path d="M4019 1753 l-24 -28 28 24 c25 23 32 31 24 31 -2 0 -14 -12 -28 -27z"/>
<path d="M4135 1760 c-10 -11 -24 -20 -32 -20 -7 0 -13 -9 -13 -19 0 -11 -6
-21 -12 -24 -7 -2 -10 -8 -6 -12 12 -13 88 14 88 30 0 8 4 15 9 15 5 0 11 7
15 15 4 13 2 13 -14 5 -32 -17 -45 -12 -25 10 10 11 16 20 13 20 -3 0 -13 -9
-23 -20z"/>
<path d="M4794 1769 c-4 -7 -3 -10 3 -6 6 4 13 -4 16 -18 2 -14 0 -28 -4 -31
-5 -3 -9 3 -9 13 0 15 -2 16 -10 3 -8 -12 -10 -11 -10 7 0 12 -4 24 -9 28 -6
3 -6 -7 0 -27 5 -18 9 -34 9 -36 0 -2 4 -1 9 2 5 4 14 -6 20 -21 8 -21 10 -22
7 -5 -2 12 0 22 5 22 5 0 12 -13 16 -30 6 -32 23 -41 23 -12 0 59 -48 140 -66
111z"/>
<path d="M4891 1764 c0 -11 3 -14 6 -6 3 7 2 16 -1 19 -3 4 -6 -2 -5 -13z"/>
<path d="M5365 1760 c3 -5 16 -15 28 -21 22 -12 22 -12 3 10 -19 21 -43 30
-31 11z"/>
<path d="M4941 1735 c7 -16 22 -39 33 -50 11 -11 14 -12 7 -3 -7 9 -10 21 -7
26 3 5 -6 20 -20 33 l-26 24 13 -30z"/>
<path d="M4046 1734 c-9 -25 -2 -26 17 -4 13 16 14 20 3 20 -8 0 -17 -7 -20
-16z"/>
<path d="M3902 1715 c-6 -13 -7 -27 -3 -30 5 -2 11 8 14 23 7 35 3 38 -11 7z"/>
<path d="M4695 1730 c-9 -14 2 -77 15 -85 12 -8 13 65 1 84 -6 10 -10 10 -16
1z"/>
<path d="M5370 1721 l25 -20 -25 6 c-23 6 -24 5 -11 -10 12 -15 12 -17 -1 -12
-9 4 -15 0 -15 -10 0 -8 5 -15 10 -15 6 0 7 -3 4 -6 -4 -4 -13 -2 -21 5 -11
10 -14 7 -12 -12 2 -32 19 -30 44 7 35 51 36 61 5 74 l-28 13 25 -20z"/>
<path d="M4231 1714 c0 -11 3 -14 6 -6 3 7 2 16 -1 19 -3 4 -6 -2 -5 -13z"/>
<path d="M4912 1719 c3 -8 2 -21 -3 -30 -5 -10 -3 -23 6 -35 12 -16 16 -17 27
-5 9 10 9 12 1 7 -8 -5 -11 -2 -7 7 3 8 1 18 -5 21 -6 4 -8 13 -5 20 3 8 0 17
-7 21 -7 5 -10 3 -7 -6z"/>
<path d="M4177 1707 c-3 -8 -1 -20 4 -28 5 -9 9 -9 9 -2 0 6 3 18 6 27 3 9 2
16 -4 16 -5 0 -12 -6 -15 -13z"/>
<path d="M3850 1701 c-8 -6 -19 -7 -25 -4 -5 3 -4 0 3 -8 10 -11 15 -10 29 4
19 19 16 22 -7 8z"/>
<path d="M5305 1700 c3 -5 11 -10 16 -10 6 0 7 5 4 10 -3 6 -11 10 -16 10 -6
0 -7 -4 -4 -10z"/>
<path d="M4654 1675 c-4 -15 -2 -30 3 -34 5 -3 11 -33 12 -66 1 -33 6 -64 10
-68 4 -4 8 -2 8 5 1 7 7 28 14 45 11 27 11 39 0 70 -8 21 -20 47 -27 57 -12
18 -13 17 -20 -9z"/>
<path d="M4610 1679 c0 -5 5 -7 10 -4 6 3 10 8 10 11 0 2 -4 4 -10 4 -5 0 -10
-5 -10 -11z"/>
<path d="M4519 1655 c-15 -8 -29 -24 -32 -35 -6 -24 10 -80 24 -80 8 0 11 9
14 51 0 9 6 24 14 32 7 9 11 23 9 31 -3 12 -7 13 -29 1z"/>
<path d="M4617 1653 c-12 -11 -8 -21 12 -26 14 -3 17 0 14 14 -5 20 -15 24
-26 12z"/>
<path d="M5273 1653 c9 -2 23 -2 30 0 6 3 -1 5 -18 5 -16 0 -22 -2 -12 -5z"/>
<path d="M4155 1620 c3 -5 10 -10 16 -10 5 0 9 5 9 10 0 6 -7 10 -16 10 -8 0
-12 -4 -9 -10z"/>
<path d="M4922 1614 c12 -14 14 -24 7 -36 -6 -11 -6 -19 1 -23 14 -9 32 4 24
17 -4 6 -1 14 6 18 9 6 3 13 -21 25 -33 17 -34 17 -17 -1z"/>
<path d="M4113 1609 c-6 -6 -9 -18 -5 -27 4 -11 1 -14 -9 -10 -9 4 -25 -9 -44
-36 l-30 -41 27 18 c15 9 34 17 41 17 23 0 39 26 35 60 -2 24 -6 28 -15 19z"/>
<path d="M4990 1611 c0 -5 7 -12 16 -15 14 -5 15 -4 4 9 -14 17 -20 19 -20 6z"/>
<path d="M4140 1584 c0 -16 5 -24 13 -22 18 7 20 35 2 41 -11 5 -15 0 -15 -19z"/>
<path d="M4171 1549 c-11 -29 -19 -54 -17 -56 2 -2 16 17 31 43 17 29 24 49
18 55 -6 6 -18 -9 -32 -42z"/>
<path d="M4220 1580 c-12 -23 -3 -25 23 -6 15 12 15 14 2 19 -9 4 -19 -2 -25
-13z"/>
<path d="M5315 1580 c-3 -5 -1 -18 5 -29 14 -28 13 -36 -5 -21 -9 7 -18 10
-21 7 -10 -9 54 -69 66 -62 13 8 13 40 1 63 -5 9 -12 25 -15 35 -6 19 -21 23
-31 7z"/>
<path d="M4980 1551 c0 -10 19 -25 25 -20 1 2 -3 10 -11 17 -8 7 -14 8 -14 3z"/>
<path d="M5026 1541 c-4 -7 -5 -15 -2 -18 9 -9 19 4 14 18 -4 11 -6 11 -12 0z"/>
<path d="M4923 1525 c0 -8 4 -12 9 -9 4 3 8 -1 8 -9 0 -8 9 -22 20 -32 12 -11
20 -13 20 -6 0 6 -7 14 -15 17 -8 4 -15 12 -15 19 0 7 -6 18 -13 24 -10 8 -14
7 -14 -4z"/>
<path d="M4972 1508 c27 -44 33 -47 35 -15 0 12 -1 16 -4 8 -4 -9 -12 -5 -30
15 l-24 29 23 -37z"/>
<path d="M5240 1526 c0 -2 7 -6 15 -10 8 -3 15 -1 15 4 0 6 -7 10 -15 10 -8 0
-15 -2 -15 -4z"/>
<path d="M5165 1470 c3 -5 8 -10 11 -10 2 0 4 5 4 10 0 6 -5 10 -11 10 -5 0
-7 -4 -4 -10z"/>
<path d="M5130 1462 c0 -6 9 -12 20 -15 11 -3 20 -3 20 -1 0 2 -9 8 -20 14
-11 6 -20 7 -20 2z"/>
<path d="M5080 1424 c0 -7 27 -34 34 -34 3 0 3 6 0 14 -5 14 -34 31 -34 20z"/>
<path d="M3800 100 c0 -5 5 -10 10 -10 6 0 10 5 10 10 0 6 -4 10 -10 10 -5 0
-10 -4 -10 -10z"/>
<path d="M5158 8923 c7 -3 16 -2 19 1 4 3 -2 6 -13 5 -11 0 -14 -3 -6 -6z"/>
<path d="M4345 8900 l-130 -6 148 -2 c97 -1 146 1 142 8 -3 6 -12 9 -18 8 -7
-1 -70 -5 -142 -8z"/>
<path d="M5270 8900 c8 -5 22 -9 30 -9 10 0 8 3 -5 9 -27 12 -43 12 -25 0z"/>
<path d="M5320 8880 c0 -5 7 -10 15 -10 8 0 15 5 15 10 0 6 -7 10 -15 10 -8 0
-15 -4 -15 -10z"/>
<path d="M5355 8832 c6 -5 24 -12 40 -16 34 -7 15 7 -25 19 -16 5 -22 4 -15
-3z"/>
<path d="M5326 8802 c-16 -16 -1 -30 47 -42 28 -7 58 -15 65 -17 25 -10 11 25
-15 36 -46 19 -91 30 -97 23z"/>
<path d="M3290 8749 c0 -5 5 -7 10 -4 6 3 10 8 10 11 0 2 -4 4 -10 4 -5 0 -10
-5 -10 -11z"/>
<path d="M5334 8731 c7 -10 95 -36 102 -29 2 3 -18 13 -45 22 -57 18 -64 19
-57 7z"/>
<path d="M5485 8690 c3 -5 8 -10 11 -10 2 0 4 5 4 10 0 6 -5 10 -11 10 -5 0
-7 -4 -4 -10z"/>
<path d="M2900 8525 c-14 -8 -20 -14 -14 -15 5 0 19 7 30 15 24 18 16 19 -16
0z"/>
<path d="M2810 8465 c-11 -13 -10 -14 4 -9 9 3 16 10 16 15 0 13 -6 11 -20 -6z"/>
<path d="M2624 8317 c-39 -28 -110 -107 -96 -107 6 0 30 20 53 45 24 25 45 41
49 36 9 -16 26 2 26 27 0 12 0 22 -1 22 0 -1 -14 -11 -31 -23z"/>
<path d="M2434 8126 c-71 -78 -118 -146 -107 -157 11 -11 82 55 103 96 17 34
38 61 62 83 16 15 16 32 -1 32 -5 0 -30 -24 -57 -54z"/>
<path d="M2272 7908 c-61 -91 -41 -82 53 22 18 19 17 20 -3 20 -14 0 -31 -15
-50 -42z"/>
<path d="M2215 7746 c-37 -51 -56 -94 -25 -57 11 13 20 19 20 15 0 -5 9 11 20
35 11 24 19 45 18 46 -2 2 -16 -16 -33 -39z"/>
<path d="M2296 7644 c-7 -19 0 -34 17 -34 9 0 8 3 -1 8 -7 5 -10 16 -6 25 3 9
4 17 1 17 -3 0 -8 -7 -11 -16z"/>
<path d="M2100 7610 c-29 -56 -25 -71 9 -31 17 20 27 41 24 52 -7 26 -10 25
-33 -21z"/>
<path d="M2236 7635 c-9 -26 -7 -32 5 -12 6 10 9 21 6 23 -2 3 -7 -2 -11 -11z"/>
<path d="M2053 7517 c-11 -12 -28 -53 -37 -92 -10 -38 -19 -75 -21 -82 -2 -7
0 -15 5 -18 5 -3 14 14 20 37 6 24 22 72 35 107 14 36 23 66 22 68 -2 2 -13
-7 -24 -20z"/>
<path d="M6370 7533 c-24 -9 -61 -46 -77 -77 -31 -59 -12 -308 33 -443 93
-278 308 -557 447 -580 33 -5 41 -2 67 26 17 17 30 35 30 40 0 5 3 17 7 27 4
12 3 15 -5 10 -7 -4 -12 -1 -12 8 0 11 -10 16 -33 16 -18 0 -42 7 -53 16 -19
15 -19 16 1 9 46 -16 56 -17 79 -2 50 34 72 193 46 343 -14 76 -74 244 -113
314 -70 126 -172 234 -224 237 -27 2 -27 2 -9 -12 11 -8 24 -15 29 -15 4 0 5
-4 2 -10 -3 -5 -2 -10 4 -10 5 0 11 -6 14 -12 2 -7 3 -4 1 7 l-3 20 15 -20 c8
-11 21 -28 28 -37 26 -30 61 -96 55 -103 -11 -10 -39 7 -39 24 0 13 -2 14 -9
2 -6 -9 -6 -24 0 -38 5 -14 9 -44 9 -69 0 -25 5 -50 10 -57 55 -65 59 -73 35
-64 -12 5 -12 2 -3 -18 6 -14 15 -25 19 -25 4 0 10 -8 13 -17 3 -10 -6 -4 -20
12 -14 17 -42 47 -61 68 -32 34 -37 48 -50 130 -8 51 -16 106 -16 124 -2 24
-7 33 -24 36 -20 4 -23 0 -23 -24 0 -16 -5 -29 -10 -29 -7 0 -7 -6 0 -19 8
-16 6 -20 -10 -23 -18 -3 -19 -4 -3 -38 10 -19 23 -39 30 -43 8 -5 11 -13 7
-18 -3 -6 6 -33 21 -61 15 -27 24 -52 21 -55 -8 -8 -166 316 -166 340 0 16 3
17 14 8 9 -7 17 -8 20 -2 3 5 0 11 -6 14 -8 3 -2 9 14 15 38 16 47 34 11 26
-35 -8 -70 -48 -83 -94 -28 -98 7 -297 77 -440 21 -41 39 -79 41 -84 3 -5 0
-6 -5 -3 -17 10 -79 147 -101 222 -36 122 -53 228 -48 296 3 35 0 69 -5 75 -7
8 -6 14 1 19 5 3 10 -1 10 -10 0 -9 5 -13 11 -10 5 4 8 12 6 18 -2 6 6 19 17
29 16 13 17 17 6 18 -13 0 -13 1 0 10 12 8 11 10 -5 9 -11 0 -27 -3 -35 -6z
m350 -263 c0 -5 -5 -10 -11 -10 -8 0 -7 -5 1 -15 7 -9 15 -13 18 -10 3 3 12
-4 20 -16 8 -11 11 -23 8 -26 -3 -4 -6 -1 -6 5 0 6 -9 10 -20 9 -14 -1 -20 -9
-21 -27 -1 -14 -5 -3 -11 24 -5 27 -7 55 -4 63 6 15 26 18 26 3z m39 -129 c-1
-14 2 -35 7 -46 8 -18 9 -17 14 10 5 26 6 27 12 9 3 -12 1 -28 -3 -35 -8 -11
-15 -7 -34 16 -14 17 -25 35 -25 40 0 6 5 3 11 -5 8 -12 9 -11 6 5 -2 11 -8
19 -14 18 -6 -1 -9 6 -6 18 8 29 35 3 32 -30z m-11 -106 c-3 -3 -9 2 -12 12
-6 14 -5 15 5 6 7 -7 10 -15 7 -18z"/>
<path d="M2116 7515 c-3 -9 -6 -22 -5 -28 0 -7 5 -1 10 12 5 13 8 26 5 28 -2
2 -6 -3 -10 -12z"/>
<path d="M2172 7420 c0 -19 2 -27 5 -17 2 9 2 25 0 35 -3 9 -5 1 -5 -18z"/>
<path d="M6530 7431 c0 -5 7 -12 16 -15 14 -5 15 -4 4 9 -14 17 -20 19 -20 6z"/>
<path d="M6450 7396 c0 -9 5 -16 10 -16 6 0 10 4 10 9 0 6 -4 13 -10 16 -5 3
-10 -1 -10 -9z"/>
<path d="M6620 7382 c0 -12 19 -26 26 -19 2 2 -2 10 -11 17 -9 8 -15 8 -15 2z"/>
<path d="M2157 7373 c-4 -3 -7 -11 -7 -17 0 -6 5 -5 12 2 6 6 9 14 7 17 -3 3
-9 2 -12 -2z"/>
<path d="M6478 7347 c4 -14 7 -16 13 -5 12 19 11 25 -5 25 -8 0 -11 -8 -8 -20z"/>
<path d="M2258 7353 c7 -3 16 -2 19 1 4 3 -2 6 -13 5 -11 0 -14 -3 -6 -6z"/>
<path d="M1991 7254 c0 -11 3 -14 6 -6 3 7 2 16 -1 19 -3 4 -6 -2 -5 -13z"/>
<path d="M3423 6935 c-6 -16 -60 -45 -103 -55 -14 -3 -25 -12 -25 -20 0 -10
-10 -15 -28 -15 -19 1 -27 -4 -27 -17 0 -10 -4 -18 -9 -18 -14 0 -24 -59 -13
-73 7 -8 5 -16 -4 -25 -12 -11 -15 -10 -20 2 -10 26 -27 18 -20 -8 5 -19 0
-29 -21 -46 -30 -23 -44 -66 -18 -56 8 3 16 0 17 -7 0 -7 2 -16 3 -22 2 -5 3
-17 4 -25 1 -12 4 -12 15 3 7 9 21 17 30 17 19 0 21 -11 5 -27 -8 -8 -8 -13 0
-18 7 -4 14 6 17 24 4 17 11 31 16 31 5 0 23 14 40 30 26 27 27 30 9 30 -11 0
-23 5 -27 12 -5 8 2 9 24 5 25 -5 33 -2 46 18 9 14 22 25 29 25 14 0 47 35 47
50 0 5 29 38 64 73 l64 63 -25 32 c-27 35 -79 45 -90 17z m-43 -94 c0 -8 -52
-23 -59 -16 -1 2 0 8 4 14 8 13 55 15 55 2z m-110 -43 c-1 -7 -7 -24 -15 -38
l-14 -25 -1 38 c0 26 4 37 15 37 8 0 15 -6 15 -12z m-25 -177 c3 -5 1 -12 -4
-15 -5 -3 -11 1 -15 9 -6 16 9 21 19 6z"/>
<path d="M3275 6898 c-20 -19 -20 -20 10 -12 38 9 38 9 23 21 -9 8 -19 5 -33
-9z"/>
<path d="M3667 6739 c-4 -16 -3 -18 9 -8 7 6 11 15 8 20 -8 13 -11 11 -17 -12z"/>
<path d="M4392 6722 l-42 -3 6 -82 c4 -45 9 -85 13 -88 11 -12 112 7 129 25
25 25 23 100 -3 126 -24 23 -41 27 -103 22z m60 -68 c8 -18 9 -31 2 -42 -18
-28 -31 -24 -38 13 -11 57 14 77 36 29z"/>
<path d="M4532 6651 c0 -43 4 -84 8 -91 13 -22 45 -6 50 25 l6 30 7 -26 c8
-31 25 -37 90 -31 l47 4 0 42 c0 77 -6 85 -59 82 -54 -3 -72 -12 -88 -46 -12
-25 -12 -25 -14 10 -1 19 -1 45 0 58 1 17 -3 22 -22 22 -24 0 -25 -2 -25 -79z
m152 -17 c7 -19 -12 -47 -25 -38 -5 3 -9 16 -9 30 0 27 24 33 34 8z"/>
<path d="M3393 6708 c-5 -7 -9 -39 -8 -71 1 -52 -1 -58 -22 -63 -13 -4 -23
-11 -23 -17 0 -6 -10 -22 -22 -35 -16 -17 -19 -26 -10 -29 6 -3 10 -9 6 -14
-3 -5 -13 -5 -25 2 -19 10 -20 8 -17 -33 2 -33 7 -43 20 -42 21 2 12 -25 -14
-44 -14 -10 -18 -21 -13 -40 4 -21 0 -30 -16 -40 -18 -12 -21 -11 -26 8 -4 13
-11 19 -20 16 -8 -3 -17 -6 -19 -6 -2 0 -4 -7 -4 -15 0 -8 -9 -24 -20 -35 -11
-11 -20 -28 -20 -37 0 -16 2 -16 11 -3 7 11 8 6 4 -20 -4 -19 -12 -39 -17 -45
-7 -7 -9 -3 -5 13 3 12 1 20 -4 16 -15 -9 -11 -213 4 -228 23 -23 75 -30 93
-12 22 23 55 20 61 -4 5 -18 11 -20 49 -14 27 4 44 2 44 -4 0 -13 -59 -22
-155 -22 -54 0 -86 -5 -99 -15 -19 -14 -18 -15 10 -16 16 -1 40 -3 54 -4 24
-3 65 1 280 25 52 6 112 11 133 12 26 0 37 4 33 13 -2 7 1 18 7 24 8 8 7 11
-6 11 -9 0 -16 -5 -15 -11 2 -6 -3 -14 -11 -17 -10 -3 -11 0 -5 9 6 11 5 12
-7 3 -17 -14 -139 -19 -139 -6 0 13 25 22 60 22 16 0 33 6 37 14 4 7 18 18 31
25 12 6 22 18 22 25 0 9 8 12 25 8 14 -2 25 -10 25 -17 0 -17 33 -45 53 -45
22 0 33 20 16 31 -11 6 -11 11 -1 21 15 15 16 38 1 38 -6 0 -8 -8 -5 -17 5
-15 3 -14 -9 2 -9 11 -13 25 -11 32 3 7 0 15 -6 19 -7 4 -8 3 -4 -4 5 -8 -2
-12 -18 -12 -33 0 -34 18 -1 26 14 3 25 10 25 14 0 12 -46 21 -65 13 -16 -5
-17 2 -14 70 3 41 2 74 -2 71 -18 -11 7 54 28 71 13 11 25 34 27 50 5 41 6 43
16 20 8 -19 9 -19 9 3 1 12 -3 22 -9 22 -5 0 -10 5 -10 11 0 5 5 7 10 4 6 -3
10 -1 10 4 0 6 -5 11 -11 11 -5 0 -7 5 -4 10 3 6 17 10 30 10 22 0 23 -3 19
-57 -3 -41 -1 -54 6 -43 5 8 10 36 10 61 0 33 5 49 16 53 25 10 27 8 19 -21
-4 -16 -8 -47 -10 -70 -3 -34 -1 -41 10 -36 17 6 20 23 5 23 -5 0 -10 5 -10
11 0 5 4 8 9 4 5 -3 13 0 17 6 3 6 1 15 -6 19 -10 6 -10 15 -2 38 6 17 8 33 5
35 -3 3 -2 11 2 17 5 8 11 6 19 -5 7 -10 21 -16 32 -13 17 3 18 11 15 83 -1
44 -7 85 -13 92 -13 17 -54 0 -50 -21 4 -20 -14 -21 -21 -2 -6 14 -107 28
-107 15 0 -4 -10 -9 -21 -12 -17 -5 -20 -12 -17 -30 4 -19 1 -24 -10 -20 -12
5 -12 2 -3 -15 10 -18 9 -21 -4 -16 -8 4 -18 17 -21 30 -3 13 -10 22 -14 19
-5 -3 -11 -1 -15 5 -10 16 -21 12 -35 -15 -7 -14 -15 -23 -17 -21 -3 2 2 17
10 33 15 29 9 58 -16 75 -14 9 -64 -43 -58 -61 3 -9 0 -12 -7 -7 -8 5 -12 -1
-13 -16 0 -13 -3 -18 -5 -11 -3 7 -11 10 -17 7 -8 -3 -12 7 -12 25 0 16 5 29
10 28 14 -3 13 55 -1 60 -6 2 -15 -2 -21 -9z m334 -180 c-3 -8 -6 -5 -6 6 -1
11 2 17 5 13 3 -3 4 -12 1 -19z m-96 -97 c-5 -18 -16 -27 -39 -32 -22 -4 -29
-3 -25 5 4 6 9 22 11 35 2 13 10 35 20 49 l16 25 12 -28 c6 -16 8 -40 5 -54z
m-170 2 c13 -14 18 -23 11 -19 -7 4 -15 1 -18 -9 -6 -13 -8 -14 -15 -3 -8 12
-13 58 -6 58 2 0 14 -12 28 -27z m155 -58 c-11 -8 -29 -15 -40 -15 -20 0 -20
0 0 15 10 8 28 14 39 14 20 0 20 0 1 -14z m-243 -30 c-7 -21 -13 -19 -13 6 0
11 4 18 10 14 5 -3 7 -12 3 -20z m-23 -27 c0 -26 -13 -16 -17 13 -2 12 1 18 7
14 5 -3 10 -16 10 -27z m263 25 c-7 -3 -13 -18 -13 -35 0 -36 -21 -33 -31 5
-8 31 -8 32 28 33 15 1 22 -1 16 -3z m-283 -83 c0 -23 -25 -27 -33 -6 -7 16 1
26 20 26 7 0 13 -9 13 -20z m-10 -75 c0 -8 4 -15 9 -15 5 0 7 -9 4 -20 -5 -17
-8 -18 -20 -8 -12 10 -18 9 -29 -7 -8 -10 -14 -27 -14 -36 0 -24 -20 -35 -22
-12 -3 41 5 79 19 96 20 21 53 23 53 2z m-36 -180 c3 -8 1 -15 -4 -15 -6 0
-10 7 -10 15 0 8 2 15 4 15 2 0 6 -7 10 -15z m231 -35 c4 -6 -6 -10 -22 -10
-22 0 -25 2 -13 10 19 12 27 12 35 0z"/>
<path d="M3590 6420 c0 -5 5 -10 10 -10 6 0 10 5 10 10 0 6 -4 10 -10 10 -5 0
-10 -4 -10 -10z"/>
<path d="M5251 6704 c0 -11 3 -14 6 -6 3 7 2 16 -1 19 -3 4 -6 -2 -5 -13z"/>
<path d="M5270 6706 c0 -9 7 -16 16 -16 9 0 14 5 12 12 -6 18 -28 21 -28 4z"/>
<path d="M5324 6705 c-3 -8 -3 -18 0 -24 4 -6 -7 -9 -25 -9 -33 1 -49 -14 -49
-49 0 -29 20 -73 34 -74 6 0 28 -2 49 -4 l37 -4 0 83 c0 67 -3 85 -16 90 -22
8 -24 8 -30 -9z m2 -80 c4 -8 3 -23 0 -32 -6 -15 -8 -15 -23 -1 -16 17 -12 48
7 48 6 0 13 -7 16 -15z"/>
<path d="M4174 6697 c-3 -8 -3 -34 0 -58 3 -24 5 -59 5 -76 1 -28 5 -33 25
-33 16 0 26 7 29 22 6 21 7 21 25 5 20 -18 62 -23 62 -8 0 5 -8 23 -17 40 -15
25 -16 34 -5 51 17 27 16 30 -12 30 -13 0 -30 -7 -37 -17 -13 -15 -15 -13 -19
18 -4 26 -10 35 -28 37 -12 2 -24 -3 -28 -11z"/>
<path d="M3141 6674 c0 -11 3 -14 6 -6 3 7 2 16 -1 19 -3 4 -6 -2 -5 -13z"/>
<path d="M4752 6627 c3 -59 4 -62 28 -62 21 0 25 5 26 30 2 54 4 59 13 50 5
-6 11 -26 13 -45 2 -27 8 -36 25 -38 19 -3 22 2 25 39 4 58 26 63 30 7 2 -36
7 -44 26 -46 20 -3 22 0 22 51 0 32 -5 59 -12 65 -7 5 -55 10 -106 10 l-93 0
3 -61z"/>
<path d="M4990 6670 c-24 -24 -26 -57 -4 -88 22 -32 88 -31 109 2 43 66 -50
141 -105 86z m67 -40 c4 -21 -13 -44 -26 -36 -6 4 -11 18 -11 32 0 19 5 25 17
22 10 -2 19 -10 20 -18z"/>
<path d="M5120 6618 c0 -56 1 -59 22 -56 18 2 22 10 23 37 0 52 23 51 27 -1 2
-36 7 -44 26 -46 20 -3 22 1 22 43 0 71 -11 84 -70 83 l-50 0 0 -60z"/>
<path d="M3360 6660 c-13 -8 -12 -10 3 -10 9 0 17 5 17 10 0 12 -1 12 -20 0z"/>
<path d="M4060 6647 c-13 -7 -27 -23 -31 -37 -7 -25 -7 -25 -8 3 -1 28 -1 28
-57 23 -70 -7 -84 -18 -84 -66 0 -54 23 -71 88 -63 47 5 57 12 53 36 -1 5 9 1
21 -7 43 -30 118 -14 118 24 0 15 -7 20 -24 20 -14 0 -28 -5 -32 -11 -4 -8 -9
-7 -15 2 -17 27 -10 41 15 35 49 -12 77 22 37 44 -26 13 -50 13 -81 -3z m-93
-63 c3 -8 -1 -22 -10 -31 -13 -14 -16 -13 -22 6 -11 35 19 59 32 25z"/>
<path d="M3120 6550 c0 -5 5 -10 11 -10 5 0 7 5 4 10 -3 6 -8 10 -11 10 -2 0
-4 -4 -4 -10z"/>
<path d="M3170 6511 c0 -12 5 -21 10 -21 6 0 10 6 10 14 0 8 -4 18 -10 21 -5
3 -10 -3 -10 -14z"/>
<path d="M3145 6466 c0 -18 3 -22 13 -14 9 8 9 14 1 24 -15 18 -14 18 -14 -10z"/>
<path d="M2836 6413 c-6 -14 -5 -15 5 -6 7 7 10 15 7 18 -3 3 -9 -2 -12 -12z"/>
<path d="M3179 6343 c-13 -15 -12 -15 9 -4 23 12 28 21 13 21 -5 0 -15 -7 -22
-17z"/>
<path d="M7120 6320 c-4 -21 0 -84 6 -89 11 -11 12 8 5 54 -5 28 -10 43 -11
35z"/>
<path d="M3727 6287 c-4 -10 -7 -26 -7 -35 1 -15 2 -15 11 1 6 10 9 25 7 35
-3 16 -4 15 -11 -1z"/>
<path d="M3761 6284 c0 -11 3 -14 6 -6 3 7 2 16 -1 19 -3 4 -6 -2 -5 -13z"/>
<path d="M2926 6268 c3 -5 10 -6 15 -3 13 9 11 12 -6 12 -8 0 -12 -4 -9 -9z"/>
<path d="M3653 6255 c-5 -6 -8 -16 -6 -22 2 -6 -1 -14 -6 -18 -6 -3 -10 -16
-10 -28 1 -17 2 -18 6 -4 2 9 11 17 19 17 8 0 14 5 14 11 0 6 7 17 15 25 8 9
15 19 15 23 0 11 -36 8 -47 -4z"/>
<path d="M2270 6250 c0 -5 5 -10 11 -10 5 0 7 5 4 10 -3 6 -8 10 -11 10 -2 0
-4 -4 -4 -10z"/>
<path d="M7097 6253 c-9 -15 3 -97 13 -86 4 4 5 28 1 53 -4 26 -9 40 -14 33z"/>
<path d="M2924 6238 c-3 -4 -2 -12 1 -18 3 -5 1 -10 -4 -10 -6 0 -11 -9 -11
-20 0 -12 -7 -35 -16 -52 -13 -25 -14 -36 -5 -50 14 -22 14 -58 1 -58 -5 0
-10 9 -10 21 0 35 -17 12 -23 -31 -8 -58 5 -95 31 -94 23 1 32 -15 10 -17 -19
-1 24 -18 47 -18 17 0 18 1 5 12 -9 7 -15 27 -14 52 1 22 -5 57 -12 78 -7 21
-9 35 -4 32 9 -6 11 1 15 45 0 8 3 20 6 25 3 6 6 26 8 45 1 19 6 39 11 44 6 6
10 13 10 17 0 10 -40 7 -46 -3z"/>
<path d="M6962 6170 c-2 -73 16 -155 42 -195 25 -39 31 -24 8 22 -22 42 -41
123 -45 193 -3 33 -4 28 -5 -20z"/>
<path d="M2216 6204 c-9 -23 -7 -64 3 -64 4 0 8 18 8 40 0 44 -2 48 -11 24z"/>
<path d="M2885 6180 c-3 -5 -1 -10 4 -10 6 0 11 5 11 10 0 6 -2 10 -4 10 -3 0
-8 -4 -11 -10z"/>
<path d="M3714 6098 c-3 -4 0 -8 7 -8 6 0 23 -12 36 -26 30 -32 35 -29 18 13
-10 23 -20 31 -35 30 -12 -1 -24 -5 -26 -9z"/>
<path d="M3780 6092 c0 -4 14 -20 30 -35 35 -33 41 -19 8 18 -21 25 -38 32
-38 17z"/>
<path d="M2722 5990 c0 -14 2 -19 5 -12 2 6 2 18 0 25 -3 6 -5 1 -5 -13z"/>
<path d="M1859 5965 c-4 -5 -10 -25 -14 -42 -3 -18 -14 -37 -23 -43 -9 -5 -12
-10 -5 -10 6 0 11 -12 10 -26 -3 -44 19 -38 32 9 12 43 12 131 0 112z"/>
<path d="M1892 5918 c-7 -7 -12 -21 -12 -32 1 -18 3 -17 16 7 17 31 15 44 -4
25z"/>
<path d="M2586 5912 c-2 -4 -1 -14 5 -22 7 -12 9 -10 9 8 0 23 -5 28 -14 14z"/>
<path d="M3660 5910 c0 -5 7 -10 16 -10 8 0 12 5 9 10 -3 6 -10 10 -16 10 -5
0 -9 -4 -9 -10z"/>
<path d="M2978 5823 c7 -3 16 -2 19 1 4 3 -2 6 -13 5 -11 0 -14 -3 -6 -6z"/>
<path d="M2271 5734 c0 -11 3 -14 6 -6 3 7 2 16 -1 19 -3 4 -6 -2 -5 -13z"/>
<path d="M2270 5660 c0 -5 5 -10 10 -10 6 0 10 5 10 10 0 6 -4 10 -10 10 -5 0
-10 -4 -10 -10z"/>
<path d="M2300 5629 c0 -5 5 -7 10 -4 6 3 10 8 10 11 0 2 -4 4 -10 4 -5 0 -10
-5 -10 -11z"/>
<path d="M2388 5633 c7 -3 16 -2 19 1 4 3 -2 6 -13 5 -11 0 -14 -3 -6 -6z"/>
<path d="M2405 5620 c-16 -7 -17 -9 -3 -9 9 -1 20 4 23 9 7 11 7 11 -20 0z"/>
<path d="M2308 5603 c6 -2 18 -2 25 0 6 3 1 5 -13 5 -14 0 -19 -2 -12 -5z"/>
<path d="M1770 4442 c-61 -30 -75 -69 -75 -207 l0 -120 67 -137 c36 -76 74
-145 82 -154 15 -14 17 -14 22 1 4 9 4 49 0 88 -3 41 -2 87 4 107 17 58 15
154 -5 196 -14 29 -16 52 -12 105 3 37 12 77 19 89 11 18 10 23 -6 36 -26 19
-54 18 -96 -4z"/>
<path d="M7014 4071 c-18 -11 -35 -25 -40 -32 -10 -18 -6 -118 8 -152 8 -20 7
-52 -2 -118 -9 -69 -9 -94 0 -102 8 -9 15 -7 25 7 17 22 75 199 75 226 0 11 7
38 16 60 23 58 10 124 -26 128 -14 1 -39 -6 -56 -17z"/>
<path d="M2197 3164 c-11 -11 -8 -42 4 -49 16 -10 19 -2 11 29 -4 15 -11 24
-15 20z"/>
<path d="M7000 2185 c0 -8 5 -15 10 -15 6 0 10 7 10 15 0 8 -4 15 -10 15 -5 0
-10 -7 -10 -15z"/>
<path d="M4260 80 c0 -5 9 -14 19 -19 16 -9 18 -8 14 9 -5 20 -33 29 -33 10z"/>
<path d="M4355 60 c3 -5 8 -10 11 -10 2 0 4 5 4 10 0 6 -5 10 -11 10 -5 0 -7
-4 -4 -10z"/>
<path d="M4428 35 c-7 -32 -5 -39 9 -34 5 2 6 17 3 34 l-6 30 -6 -30z"/>
<path d="M1540 21 c0 -17 6 -21 30 -21 22 0 28 4 24 15 -4 8 -10 15 -14 15 -5
0 -15 3 -24 6 -12 4 -16 0 -16 -15z"/>
</g>
</svg>
